<?xml version="1.0" encoding="UTF-8" standalone="no"?>
<!-- Created with Inkscape (http://www.inkscape.org/) -->

<svg
   xmlns:dc="http://purl.org/dc/elements/1.1/"
   xmlns:cc="http://creativecommons.org/ns#"
   xmlns:rdf="http://www.w3.org/1999/02/22-rdf-syntax-ns#"
   xmlns:svg="http://www.w3.org/2000/svg"
   xmlns="http://www.w3.org/2000/svg"
   xmlns:sodipodi="http://sodipodi.sourceforge.net/DTD/sodipodi-0.dtd"
   xmlns:inkscape="http://www.inkscape.org/namespaces/inkscape"
   width="306.13303"
   height="158.4016"
   id="svg15318"
   version="1.1"
   inkscape:version="0.48.4 r9939"
   sodipodi:docname="model_struct.pdf">
  <defs
     id="defs15320">
    <marker
       style="overflow:visible"
       id="Arrow1Lend"
       refX="0"
       refY="0"
       orient="auto"
       inkscape:stockid="Arrow1Lend">
      <path
         inkscape:connector-curvature="0"
         transform="matrix(-0.8,0,0,-0.8,-10,0)"
         style="fill-rule:evenodd;stroke:#000000;stroke-width:1pt"
         d="M 0,0 5,-5 -12.5,0 5,5 0,0 z"
         id="path3827" />
    </marker>
    <marker
       style="overflow:visible"
       id="marker15237"
       refX="0"
       refY="0"
       orient="auto"
       inkscape:stockid="Arrow1Lend">
      <path
         inkscape:connector-curvature="0"
         transform="matrix(-0.8,0,0,-0.8,-10,0)"
         style="fill-rule:evenodd;stroke:#000000;stroke-width:1pt"
         d="M 0,0 5,-5 -12.5,0 5,5 0,0 z"
         id="path15239" />
    </marker>
    <clipPath
       id="clipPath5017"
       clipPathUnits="userSpaceOnUse">
      <path
         id="path5019"
         d="m 44,37.28 249.77,0 0,93.82 -249.77,0 0,-93.82 z"
         inkscape:connector-curvature="0" />
    </clipPath>
    <marker
       style="overflow:visible"
       id="Arrow1Lend-4"
       refX="0"
       refY="0"
       orient="auto"
       inkscape:stockid="Arrow1Lend">
      <path
         inkscape:connector-curvature="0"
         transform="matrix(-0.8,0,0,-0.8,-10,0)"
         style="fill-rule:evenodd;stroke:#000000;stroke-width:1pt"
         d="M 0,0 5,-5 -12.5,0 5,5 0,0 z"
         id="path3827-7" />
    </marker>
    <clipPath
       id="clipPath5017-8"
       clipPathUnits="userSpaceOnUse">
      <path
         id="path5019-6"
         d="m 44,37.28 249.77,0 0,93.82 -249.77,0 0,-93.82 z"
         inkscape:connector-curvature="0" />
    </clipPath>
    <clipPath
       id="clipPath5017-3"
       clipPathUnits="userSpaceOnUse">
      <path
         id="path5019-1"
         d="m 44,37.28 249.77,0 0,93.82 -249.77,0 0,-93.82 z"
         inkscape:connector-curvature="0" />
    </clipPath>
    <marker
       style="overflow:visible"
       id="marker15700"
       refX="0"
       refY="0"
       orient="auto"
       inkscape:stockid="Arrow1Lend">
      <path
         inkscape:connector-curvature="0"
         transform="matrix(-0.8,0,0,-0.8,-10,0)"
         style="fill-rule:evenodd;stroke:#000000;stroke-width:1pt"
         d="M 0,0 5,-5 -12.5,0 5,5 0,0 z"
         id="path15702" />
    </marker>
  </defs>
  <sodipodi:namedview
     id="base"
     pagecolor="#ffffff"
     bordercolor="#666666"
     borderopacity="1.0"
     inkscape:pageopacity="0.0"
     inkscape:pageshadow="2"
     inkscape:zoom="2.8284271"
     inkscape:cx="161.14136"
     inkscape:cy="90.132706"
     inkscape:document-units="px"
     inkscape:current-layer="layer1"
     showgrid="false"
     fit-margin-top="10"
     fit-margin-left="10"
     fit-margin-right="10"
     fit-margin-bottom="10"
     inkscape:window-width="1600"
     inkscape:window-height="843"
     inkscape:window-x="0"
     inkscape:window-y="33"
     inkscape:window-maximized="1" />
  <metadata
     id="metadata15323">
    <rdf:RDF>
      <cc:Work
         rdf:about="">
        <dc:format>image/svg+xml</dc:format>
        <dc:type
           rdf:resource="http://purl.org/dc/dcmitype/StillImage" />
        <dc:title></dc:title>
      </cc:Work>
    </rdf:RDF>
  </metadata>
  <g
     inkscape:label="Layer 1"
     inkscape:groupmode="layer"
     id="layer1"
     transform="translate(-169.85143,-204.74734)">
    <path
       d="m 600,272.36218 c 0,80.47578 -70.35525,145.71428 -157.14285,145.71428 -86.7876,0 -157.14286,-65.2385 -157.14286,-145.71428 0,-80.47577 70.35526,-145.71428 157.14286,-145.71428 86.7876,0 157.14285,65.23851 157.14285,145.71428 z"
       sodipodi:ry="145.71428"
       sodipodi:rx="157.14285"
       sodipodi:cy="272.36218"
       sodipodi:cx="442.85715"
       id="path2985-6-7"
       style="fill:#000000;fill-opacity:0;stroke:#000000;stroke-width:2.22335935;stroke-linejoin:bevel;stroke-miterlimit:4;stroke-opacity:1;stroke-dasharray:none;stroke-dashoffset:0"
       sodipodi:type="arc"
       transform="matrix(0.20567417,0,0,0.20567417,164.60206,72.93507)" />
    <text
       sodipodi:linespacing="125%"
       id="text3034"
       y="91.631096"
       x="357.77933"
       style="font-size:6.83564711px;font-style:normal;font-weight:normal;text-align:center;line-height:125%;letter-spacing:0px;word-spacing:0px;text-anchor:middle;fill:#000000;fill-opacity:1;stroke:none;font-family:helvetica;-inkscape-font-specification:helvetica"
       xml:space="preserve"><tspan
         y="91.631096"
         x="357.77933"
         id="tspan3036"
         sodipodi:role="line">Local host community</tspan></text>
    <text
       sodipodi:linespacing="125%"
       id="text3044"
       y="91.631096"
       x="261.89377"
       style="font-size:6.83564711px;font-style:normal;font-weight:normal;text-align:center;line-height:125%;letter-spacing:0px;word-spacing:0px;text-anchor:middle;fill:#000000;fill-opacity:1;stroke:none;font-family:helvetica;-inkscape-font-specification:helvetica"
       xml:space="preserve"><tspan
         id="tspan3048"
         y="91.631096"
         x="261.89377"
         sodipodi:role="line">Regional symbiont pool</tspan></text>
    <path
       sodipodi:nodetypes="cc"
       inkscape:connector-curvature="0"
       id="path4268"
       d="m 288.12622,128.80659 29.3121,0.20805"
       style="fill:none;stroke:#000000;stroke-width:0.62142259px;stroke-linecap:butt;stroke-linejoin:miter;stroke-opacity:1;marker-end:url(#Arrow1Lend)" />
    <text
       sodipodi:linespacing="125%"
       id="text4452"
       y="264.00211"
       x="214.90581"
       style="font-size:6.83564711px;font-style:normal;font-weight:normal;text-align:center;line-height:125%;letter-spacing:0px;word-spacing:0px;text-anchor:middle;fill:#000000;fill-opacity:1;stroke:none;font-family:Sans"
       xml:space="preserve"><tspan
         style="fill:#0000ff;font-family:Helvetica;-inkscape-font-specification:Helvetica"
         y="264.00211"
         x="214.90581"
         id="tspan4454"
         sodipodi:role="line">(Symbiont colonization)</tspan></text>
    <g
       id="g3139"
       transform="matrix(0.22475226,0,0,-0.22475226,277.90461,146.66731)">
      <path
         id="path3141"
         style="fill:none;stroke:#a9a9a9;stroke-width:0.75;stroke-linecap:round;stroke-linejoin:round;stroke-miterlimit:10;stroke-opacity:1;stroke-dasharray:none"
         d="m 349.17,102.31 0.05,-0.19 0.22,-0.99 0.36,-1.63 0.36,-1.64 0.3,-1.35 0.25,-1.13 0.12,-0.55 0.24,-1.07 0.27,-1.21 0.33,-1.5 0.37,-1.7 0.31,-1.4 0.13,-0.56 0.01,-0.03"
         inkscape:connector-curvature="0" />
      <path
         id="path3143"
         style="fill:none;stroke:#a9a9a9;stroke-width:0.75;stroke-linecap:round;stroke-linejoin:round;stroke-miterlimit:10;stroke-opacity:1;stroke-dasharray:none"
         d="m 345.48,111.16 -0.1,0.16 -0.53,0.83 -0.93,1.45 -1,1.54 -0.84,1.32 -0.7,1.09 -0.6,0.93 -0.63,0.97 -0.71,1.1 -0.85,1.33 -1,1.55 -0.92,1.43 -0.51,0.79 -0.09,0.14"
         inkscape:connector-curvature="0" />
      <path
         id="path3145"
         style="fill:none;stroke:#a9a9a9;stroke-width:0.75;stroke-linecap:round;stroke-linejoin:round;stroke-miterlimit:10;stroke-opacity:1;stroke-dasharray:none"
         d="m 336.74,133.46 0.13,0.14 0.68,0.73 1.16,1.26 1.2,1.31 1.03,1.1 0.84,0.91 0.62,0.67 0.77,0.84 0.87,0.94 1.07,1.15 1.22,1.33 1.1,1.19 0.55,0.6 0.07,0.07"
         inkscape:connector-curvature="0" />
      <path
         id="path3147"
         style="fill:none;stroke:#a9a9a9;stroke-width:0.75;stroke-linecap:round;stroke-linejoin:round;stroke-miterlimit:10;stroke-opacity:1;stroke-dasharray:none"
         d="m 331.66,134.42 -0.07,0.17 -0.36,0.92 -0.63,1.61 -0.68,1.74 -0.58,1.49 -0.49,1.24 -0.43,1.1 -0.02,0.05 -0.43,1.1 -0.48,1.22 -0.58,1.48 -0.67,1.74 -0.64,1.62 -0.37,0.96 -0.08,0.19 0,0"
         inkscape:connector-curvature="0" />
      <path
         id="path3149"
         style="fill:none;stroke:#a9a9a9;stroke-width:0.75;stroke-linecap:round;stroke-linejoin:round;stroke-miterlimit:10;stroke-opacity:1;stroke-dasharray:none"
         d="m 351.29,154.15 -0.01,0.19 -0.01,1 -0.03,1.71 -0.02,1.79 -0.03,1.52 -0.02,1.25 -0.01,0.95 -0.02,1.15 -0.02,1.28 -0.02,1.57 -0.03,1.82 -0.02,1.63 -0.02,0.84 0,0.12"
         inkscape:connector-curvature="0" />
      <path
         id="path3151"
         style="fill:none;stroke:#a9a9a9;stroke-width:0.75;stroke-linecap:round;stroke-linejoin:round;stroke-miterlimit:10;stroke-opacity:1;stroke-dasharray:none"
         d="m 333.5,134.76 0,0.21 0.01,0.96 0.02,1.2 0.01,0.96 0.01,0.78 0.01,0.78 0.01,0.96 0.02,1.2 0.01,0.97 0,0.21"
         inkscape:connector-curvature="0" />
      <path
         id="path3153"
         style="fill:none;stroke:#a9a9a9;stroke-width:0.75;stroke-linecap:round;stroke-linejoin:round;stroke-miterlimit:10;stroke-opacity:1;stroke-dasharray:none"
         d="m 352.7,105.41 0.21,-0.08 0.99,-0.36 1.38,-0.5 1.19,-0.43 0.95,-0.34 0.46,-0.17 0.88,-0.32 1.04,-0.38 1.32,-0.48 1.29,-0.46 0.6,-0.22 0.04,-0.01"
         inkscape:connector-curvature="0" />
      <path
         id="path3155"
         style="fill:none;stroke:#a9a9a9;stroke-width:0.75;stroke-linecap:round;stroke-linejoin:round;stroke-miterlimit:10;stroke-opacity:1;stroke-dasharray:none"
         d="m 329.41,127.14 -0.17,-0.12 -0.84,-0.57 -1.35,-0.92 -1.3,-0.89 -1.06,-0.72 -0.89,-0.61 -0.22,-0.15 -0.87,-0.6 -1,-0.68 -1.24,-0.84 -1.38,-0.94 -1.03,-0.71 -0.31,-0.21 0,0"
         inkscape:connector-curvature="0" />
      <path
         id="path3157"
         style="fill:none;stroke:#a9a9a9;stroke-width:0.75;stroke-linecap:round;stroke-linejoin:round;stroke-miterlimit:10;stroke-opacity:1;stroke-dasharray:none"
         d="m 315.49,111.89 0.07,-0.19 0.38,-0.97 0.57,-1.47 0.54,-1.37 0.42,-1.1 0.37,-0.94 0,0 0.37,-0.94 0.42,-1.1 0.54,-1.37 0.57,-1.47 0.38,-0.97 0.07,-0.19 0,0"
         inkscape:connector-curvature="0" />
      <path
         id="path3159"
         style="fill:none;stroke:#a9a9a9;stroke-width:0.75;stroke-linecap:round;stroke-linejoin:round;stroke-miterlimit:10;stroke-opacity:1;stroke-dasharray:none"
         d="m 313.45,111.57 -0.01,-0.19 -0.06,-0.99 -0.09,-1.72 -0.11,-1.82 -0.08,-1.56 -0.08,-1.29 -0.06,-1.1 -0.06,-1.16 -0.07,-1.3 -0.09,-1.58 -0.11,-1.83 -0.09,-1.7 -0.05,-0.94 -0.01,-0.15"
         inkscape:connector-curvature="0" />
      <path
         id="path3161"
         style="fill:none;stroke:#a9a9a9;stroke-width:0.75;stroke-linecap:round;stroke-linejoin:round;stroke-miterlimit:10;stroke-opacity:1;stroke-dasharray:none"
         d="m 337.99,128.16 0.13,-0.05 0.56,-0.21 0.71,-0.27 0.56,-0.21 0.46,-0.18 0.46,-0.17 0.56,-0.21 0.71,-0.27 0.56,-0.21 0.13,-0.05"
         inkscape:connector-curvature="0" />
      <path
         id="path3163"
         style="fill:none;stroke:#a9a9a9;stroke-width:0.75;stroke-linecap:round;stroke-linejoin:round;stroke-miterlimit:10;stroke-opacity:1;stroke-dasharray:none"
         d="m 322.14,160.3 -0.05,0.19 -0.25,0.98 -0.43,1.62 -0.43,1.64 -0.35,1.36 -0.3,1.13 -0.16,0.6 -0.28,1.07 -0.31,1.21 -0.39,1.49 -0.45,1.69 -0.37,1.42 -0.15,0.6 -0.01,0.04"
         inkscape:connector-curvature="0" />
      <path
         id="path3165"
         style="fill:none;stroke:#a9a9a9;stroke-width:0.75;stroke-linecap:round;stroke-linejoin:round;stroke-miterlimit:10;stroke-opacity:1;stroke-dasharray:none"
         d="m 309.24,114.53 -0.22,-0.09 -0.94,-0.41 -1.18,-0.5 -0.94,-0.4 -0.77,-0.32 -0.76,-0.33 -0.95,-0.4 -1.18,-0.5 -0.94,-0.4 -0.21,-0.09"
         inkscape:connector-curvature="0" />
      <path
         id="path3167"
         style="fill:none;stroke:#a9a9a9;stroke-width:0.75;stroke-linecap:round;stroke-linejoin:round;stroke-miterlimit:10;stroke-opacity:1;stroke-dasharray:none"
         d="m 354.64,152.89 0.14,0.16 0.71,0.77 1.02,1.12 0.91,1.01 0.73,0.8 0.47,0.52 0.65,0.71 0.77,0.85 0.96,1.06 0.99,1.08 0.55,0.61 0.06,0.06"
         inkscape:connector-curvature="0" />
      <path
         id="path3169"
         style="fill:none;stroke:#a9a9a9;stroke-width:0.75;stroke-linecap:round;stroke-linejoin:round;stroke-miterlimit:10;stroke-opacity:1;stroke-dasharray:none"
         d="m 309.33,118.54 -0.19,0.09 -0.93,0.45 -1.44,0.69 -1.36,0.65 -1.09,0.53 -0.93,0.44 -0.08,0.04 -0.93,0.45 -1.07,0.51 -1.33,0.64 -1.45,0.7 -1.01,0.48 -0.23,0.12 0,0"
         inkscape:connector-curvature="0" />
      <path
         id="path3171"
         style="fill:none;stroke:#a9a9a9;stroke-width:0.75;stroke-linecap:round;stroke-linejoin:round;stroke-miterlimit:10;stroke-opacity:1;stroke-dasharray:none"
         d="m 311.59,120.81 -0.1,0.19 -0.45,0.94 -0.68,1.39 -0.62,1.27 -0.48,1 -0.37,0.75 -0.43,0.89 -0.51,1.04 -0.63,1.3 -0.67,1.37 -0.4,0.82 -0.06,0.12"
         inkscape:connector-curvature="0" />
      <path
         id="path3173"
         style="fill:none;stroke:#a9a9a9;stroke-width:0.75;stroke-linecap:round;stroke-linejoin:round;stroke-miterlimit:10;stroke-opacity:1;stroke-dasharray:none"
         d="m 288.14,127.49 -0.23,0.05 -1.02,0.23 -1.34,0.29 -1.1,0.24 -0.88,0.2 -0.16,0.03 -0.86,0.19 -1.05,0.23 -1.31,0.3 -1.15,0.25 -0.36,0.08 0,0"
         inkscape:connector-curvature="0" />
      <path
         id="path3175"
         style="fill:none;stroke:#a9a9a9;stroke-width:0.75;stroke-linecap:round;stroke-linejoin:round;stroke-miterlimit:10;stroke-opacity:1;stroke-dasharray:none"
         d="m 311.27,112.22 -0.1,-0.17 -0.51,-0.89 -0.82,-1.41 -0.81,-1.38 -0.65,-1.13 -0.55,-0.94 -0.16,-0.28 -0.53,-0.92 -0.61,-1.05 -0.76,-1.31 -0.85,-1.45 -0.64,-1.11 -0.21,-0.36 0,0"
         inkscape:connector-curvature="0" />
      <path
         id="path3177"
         style="fill:none;stroke:#a9a9a9;stroke-width:0.75;stroke-linecap:round;stroke-linejoin:round;stroke-miterlimit:10;stroke-opacity:1;stroke-dasharray:none"
         d="m 356.09,148.13 0.22,-0.06 1.02,-0.25 1.42,-0.34 1.22,-0.3 0.96,-0.24 0.44,-0.1 0.9,-0.22 1.08,-0.27 1.36,-0.33 1.31,-0.32 0.59,-0.14 0.03,-0.01"
         inkscape:connector-curvature="0" />
      <path
         id="path3179"
         style="fill:#add8e6;fill-opacity:1;fill-rule:nonzero;stroke:#000000;stroke-width:0.75;stroke-linecap:round;stroke-linejoin:round;stroke-miterlimit:10;stroke-opacity:1;stroke-dasharray:none"
         d="m 343.25,107.07 c 0,2.68 2.19,4.87 4.87,4.87 2.68,0 4.87,-2.19 4.87,-4.87 0,-2.68 -2.19,-4.88 -4.87,-4.88 -2.68,0 -4.87,2.2 -4.87,4.88"
         inkscape:connector-curvature="0" />
      <path
         id="path3181"
         style="fill:#add8e6;fill-opacity:1;fill-rule:nonzero;stroke:#000000;stroke-width:0.75;stroke-linecap:round;stroke-linejoin:round;stroke-miterlimit:10;stroke-opacity:1;stroke-dasharray:none"
         d="m 348.67,82.6 c 0,2.68 2.19,4.87 4.87,4.87 2.68,0 4.87,-2.19 4.87,-4.87 0,-2.68 -2.19,-4.87 -4.87,-4.87 -2.68,0 -4.87,2.19 -4.87,4.87"
         inkscape:connector-curvature="0" />
      <path
         id="path3183"
         style="fill:#ff0000;fill-opacity:1;fill-rule:nonzero;stroke:#000000;stroke-width:0.75;stroke-linecap:round;stroke-linejoin:round;stroke-miterlimit:10;stroke-opacity:1;stroke-dasharray:none"
         d="m 328.56,129.88 c 0,2.68 2.19,4.88 4.87,4.88 2.68,0 4.88,-2.2 4.88,-4.88 0,-2.68 -2.2,-4.87 -4.88,-4.87 -2.68,0 -4.87,2.19 -4.87,4.87"
         inkscape:connector-curvature="0" />
      <path
         id="path3185"
         style="fill:#add8e6;fill-opacity:1;fill-rule:nonzero;stroke:#000000;stroke-width:0.75;stroke-linecap:round;stroke-linejoin:round;stroke-miterlimit:10;stroke-opacity:1;stroke-dasharray:none"
         d="m 346.49,149.28 c 0,2.68 2.19,4.87 4.87,4.87 2.68,0 4.87,-2.19 4.87,-4.87 0,-2.68 -2.19,-4.87 -4.87,-4.87 -2.68,0 -4.87,2.19 -4.87,4.87"
         inkscape:connector-curvature="0" />
      <path
         id="path3187"
         style="fill:#add8e6;fill-opacity:1;fill-rule:nonzero;stroke:#000000;stroke-width:0.75;stroke-linecap:round;stroke-linejoin:round;stroke-miterlimit:10;stroke-opacity:1;stroke-dasharray:none"
         d="m 318.5,155.59 c 0,2.68 2.19,4.87 4.87,4.87 2.68,0 4.88,-2.19 4.88,-4.87 0,-2.68 -2.2,-4.87 -4.88,-4.87 -2.68,0 -4.87,2.19 -4.87,4.87"
         inkscape:connector-curvature="0" />
      <path
         id="path3189"
         style="fill:#add8e6;fill-opacity:1;fill-rule:nonzero;stroke:#000000;stroke-width:0.75;stroke-linecap:round;stroke-linejoin:round;stroke-miterlimit:10;stroke-opacity:1;stroke-dasharray:none"
         d="m 346.09,175.84 c 0,2.68 2.19,4.87 4.87,4.87 2.68,0 4.87,-2.19 4.87,-4.87 0,-2.68 -2.19,-4.88 -4.87,-4.88 -2.68,0 -4.87,2.2 -4.87,4.88"
         inkscape:connector-curvature="0" />
      <path
         id="path3191"
         style="fill:#add8e6;fill-opacity:1;fill-rule:nonzero;stroke:#000000;stroke-width:0.75;stroke-linecap:round;stroke-linejoin:round;stroke-miterlimit:10;stroke-opacity:1;stroke-dasharray:none"
         d="m 328.79,147.87 c 0,2.68 2.19,4.87 4.87,4.87 2.68,0 4.88,-2.19 4.88,-4.87 0,-2.68 -2.2,-4.88 -4.88,-4.88 -2.68,0 -4.87,2.2 -4.87,4.88"
         inkscape:connector-curvature="0" />
      <path
         id="path3193"
         style="fill:#add8e6;fill-opacity:1;fill-rule:nonzero;stroke:#000000;stroke-width:0.75;stroke-linecap:round;stroke-linejoin:round;stroke-miterlimit:10;stroke-opacity:1;stroke-dasharray:none"
         d="m 362.76,100 c 0,2.68 2.19,4.87 4.87,4.87 2.68,0 4.87,-2.19 4.87,-4.87 0,-2.68 -2.19,-4.88 -4.87,-4.88 -2.68,0 -4.87,2.2 -4.87,4.88"
         inkscape:connector-curvature="0" />
      <path
         id="path3195"
         style="fill:#add8e6;fill-opacity:1;fill-rule:nonzero;stroke:#000000;stroke-width:0.75;stroke-linecap:round;stroke-linejoin:round;stroke-miterlimit:10;stroke-opacity:1;stroke-dasharray:none"
         d="m 308.85,116.43 c 0,2.68 2.19,4.88 4.87,4.88 2.68,0 4.87,-2.2 4.87,-4.88 0,-2.68 -2.19,-4.87 -4.87,-4.87 -2.68,0 -4.87,2.19 -4.87,4.87"
         inkscape:connector-curvature="0" />
      <path
         id="path3197"
         style="fill:#add8e6;fill-opacity:1;fill-rule:nonzero;stroke:#000000;stroke-width:0.75;stroke-linecap:round;stroke-linejoin:round;stroke-miterlimit:10;stroke-opacity:1;stroke-dasharray:none"
         d="m 317.09,95.27 c 0,2.68 2.19,4.87 4.87,4.87 2.68,0 4.87,-2.19 4.87,-4.87 0,-2.68 -2.19,-4.88 -4.87,-4.88 -2.68,0 -4.87,2.2 -4.87,4.88"
         inkscape:connector-curvature="0" />
      <path
         id="path3199"
         style="fill:#add8e6;fill-opacity:1;fill-rule:nonzero;stroke:#000000;stroke-width:0.75;stroke-linecap:round;stroke-linejoin:round;stroke-miterlimit:10;stroke-opacity:1;stroke-dasharray:none"
         d="m 307.33,89.37 c 0,2.68 2.2,4.88 4.88,4.88 2.68,0 4.87,-2.2 4.87,-4.88 0,-2.68 -2.19,-4.87 -4.87,-4.87 -2.68,0 -4.88,2.19 -4.88,4.87"
         inkscape:connector-curvature="0" />
      <path
         id="path3201"
         style="fill:#add8e6;fill-opacity:1;fill-rule:nonzero;stroke:#000000;stroke-width:0.75;stroke-linecap:round;stroke-linejoin:round;stroke-miterlimit:10;stroke-opacity:1;stroke-dasharray:none"
         d="m 342.52,124.6 c 0,2.68 2.19,4.88 4.87,4.88 2.68,0 4.87,-2.2 4.87,-4.88 0,-2.68 -2.19,-4.87 -4.87,-4.87 -2.68,0 -4.87,2.19 -4.87,4.87"
         inkscape:connector-curvature="0" />
      <path
         id="path3203"
         style="fill:#add8e6;fill-opacity:1;fill-rule:nonzero;stroke:#000000;stroke-width:0.75;stroke-linecap:round;stroke-linejoin:round;stroke-miterlimit:10;stroke-opacity:1;stroke-dasharray:none"
         d="m 312.1,180.05 c 0,2.68 2.19,4.87 4.87,4.87 2.68,0 4.87,-2.19 4.87,-4.87 0,-2.68 -2.19,-4.87 -4.87,-4.87 -2.68,0 -4.87,2.19 -4.87,4.87"
         inkscape:connector-curvature="0" />
      <path
         id="path3205"
         style="fill:#ff0000;fill-opacity:1;fill-rule:nonzero;stroke:#000000;stroke-width:0.75;stroke-linecap:round;stroke-linejoin:round;stroke-miterlimit:10;stroke-opacity:1;stroke-dasharray:none"
         d="m 291.79,109.18 c 0,2.68 2.19,4.87 4.87,4.87 2.68,0 4.88,-2.19 4.88,-4.87 0,-2.68 -2.2,-4.87 -4.88,-4.87 -2.68,0 -4.87,2.19 -4.87,4.87"
         inkscape:connector-curvature="0" />
      <path
         id="path3207"
         style="fill:#add8e6;fill-opacity:1;fill-rule:nonzero;stroke:#000000;stroke-width:0.75;stroke-linecap:round;stroke-linejoin:round;stroke-miterlimit:10;stroke-opacity:1;stroke-dasharray:none"
         d="m 361.01,165.25 c 0,2.68 2.19,4.87 4.87,4.87 2.68,0 4.87,-2.19 4.87,-4.87 0,-2.68 -2.19,-4.87 -4.87,-4.87 -2.68,0 -4.87,2.19 -4.87,4.87"
         inkscape:connector-curvature="0" />
      <path
         id="path3209"
         style="fill:#add8e6;fill-opacity:1;fill-rule:nonzero;stroke:#000000;stroke-width:0.75;stroke-linecap:round;stroke-linejoin:round;stroke-miterlimit:10;stroke-opacity:1;stroke-dasharray:none"
         d="m 288.02,126.44 c 0,2.68 2.2,4.87 4.88,4.87 2.68,0 4.87,-2.19 4.87,-4.87 0,-2.68 -2.19,-4.88 -4.87,-4.88 -2.68,0 -4.88,2.2 -4.88,4.88"
         inkscape:connector-curvature="0" />
      <path
         id="path3211"
         style="fill:#add8e6;fill-opacity:1;fill-rule:nonzero;stroke:#000000;stroke-width:0.75;stroke-linecap:round;stroke-linejoin:round;stroke-miterlimit:10;stroke-opacity:1;stroke-dasharray:none"
         d="m 299.19,136.27 c 0,2.68 2.19,4.87 4.87,4.87 2.68,0 4.87,-2.19 4.87,-4.87 0,-2.68 -2.19,-4.87 -4.87,-4.87 -2.68,0 -4.87,2.19 -4.87,4.87"
         inkscape:connector-curvature="0" />
      <path
         id="path3213"
         style="fill:#add8e6;fill-opacity:1;fill-rule:nonzero;stroke:#000000;stroke-width:0.75;stroke-linecap:round;stroke-linejoin:round;stroke-miterlimit:10;stroke-opacity:1;stroke-dasharray:none"
         d="m 269.05,130.63 c 0,2.68 2.2,4.87 4.88,4.87 2.68,0 4.87,-2.19 4.87,-4.87 0,-2.68 -2.19,-4.87 -4.87,-4.87 -2.68,0 -4.88,2.19 -4.88,4.87"
         inkscape:connector-curvature="0" />
      <path
         id="path3215"
         style="fill:#add8e6;fill-opacity:1;fill-rule:nonzero;stroke:#000000;stroke-width:0.75;stroke-linecap:round;stroke-linejoin:round;stroke-miterlimit:10;stroke-opacity:1;stroke-dasharray:none"
         d="m 296.75,95.6 c 0,2.68 2.19,4.87 4.87,4.87 2.68,0 4.87,-2.19 4.87,-4.87 0,-2.68 -2.19,-4.87 -4.87,-4.87 -2.68,0 -4.87,2.19 -4.87,4.87"
         inkscape:connector-curvature="0" />
      <path
         id="path3217"
         style="fill:#add8e6;fill-opacity:1;fill-rule:nonzero;stroke:#000000;stroke-width:0.75;stroke-linecap:round;stroke-linejoin:round;stroke-miterlimit:10;stroke-opacity:1;stroke-dasharray:none"
         d="m 366.5,144.39 c 0,2.68 2.19,4.87 4.87,4.87 2.68,0 4.88,-2.19 4.88,-4.87 0,-2.68 -2.2,-4.87 -4.88,-4.87 -2.68,0 -4.87,2.19 -4.87,4.87"
         inkscape:connector-curvature="0" />
    </g>
    <text
       sodipodi:linespacing="125%"
       id="text4764"
       y="277.04019"
       x="321.68912"
       style="font-size:11.185606px;font-style:normal;font-variant:normal;font-weight:normal;font-stretch:normal;text-align:center;line-height:125%;letter-spacing:0px;word-spacing:0px;text-anchor:middle;fill:#000000;fill-opacity:1;stroke:none;font-family:Helvetica;-inkscape-font-specification:Helvetica"
       xml:space="preserve"><tspan
         style="font-size:6.83564711px;fill:#0000ff"
         y="277.04019"
         x="321.68912"
         id="tspan4766"
         sodipodi:role="line">(Transmission)</tspan><tspan
         id="tspan4768"
         style="font-size:6.83564711px;fill:#0000ff"
         y="285.58475"
         x="321.68912"
         sodipodi:role="line">(Recovery)</tspan><tspan
         id="tspan15493"
         style="font-size:6.83564711px;fill:#0000ff"
         y="294.1293"
         x="321.68912"
         sodipodi:role="line">(Birth)</tspan><tspan
         id="tspan15495"
         style="font-size:6.83564711px;fill:#0000ff"
         y="302.67386"
         x="321.68912"
         sodipodi:role="line">(Death)</tspan></text>
    <path
       inkscape:connector-curvature="0"
       id="path4772"
       d="m 382.426,129.28528 c 14.70544,0.4999 17.18722,14.52665 20.1984,27.67153"
       style="fill:none;stroke:#000000;stroke-width:0.62142259px;stroke-linecap:butt;stroke-linejoin:miter;stroke-opacity:1;marker-end:url(#Arrow1Lend)"
       sodipodi:nodetypes="cc" />
    <text
       sodipodi:linespacing="125%"
       id="text4960"
       y="318.20004"
       x="433.24716"
       style="font-size:11.185606px;font-style:normal;font-variant:normal;font-weight:normal;font-stretch:normal;text-align:center;line-height:125%;letter-spacing:0px;word-spacing:0px;text-anchor:middle;fill:#000000;fill-opacity:1;stroke:none;font-family:Helvetica;-inkscape-font-specification:Helvetica"
       xml:space="preserve"><tspan
         style="font-size:6.83564711px;fill:#0000ff"
         y="318.20004"
         x="433.24716"
         id="tspan4962"
         sodipodi:role="line">(Symbiont extirpation)</tspan></text>
    <g
       id="g5013"
       transform="matrix(0.20340473,0,0,-0.20340473,221.01692,143.67326)">
      <g
         clip-path="url(#clipPath5017)"
         id="g5015">
        <path
           id="path5021"
           style="fill:#ffffff;fill-opacity:1;fill-rule:nonzero;stroke:none"
           d="m 44,37.28 249.77,0 0,93.82 -249.77,0 0,-93.82 z"
           inkscape:connector-curvature="0" />
        <path
           id="path5023"
           style="fill:none;stroke:#f8766d;stroke-width:4.25;stroke-linecap:butt;stroke-linejoin:round;stroke-miterlimit:1;stroke-opacity:1;stroke-dasharray:none"
           d="m 55.36,41.55 0.27,0 0.16,0 0.21,0 0.01,0 0.27,0 0.78,0 0.11,0 0.95,0 0.41,0 0.49,0 0.29,0 0.97,0 1.01,0 0.89,0 0.61,0 0.71,0 0.03,0 0.21,0 0.98,0 0.13,0 0.49,0 0.78,0 0.3,0 0.45,0 0.43,0 0.72,0 2.74,0 0.99,0 0.44,0 0.46,0 0.06,0 0.44,0 0.83,0 0.02,0 0.35,0 0.07,0 0.24,0 1.28,0 0.05,0 1.93,0 0.44,0 0.29,0 0.2,0 0.07,0 0.08,0 0.47,0 0.16,0 0.76,0 0.04,0 0.35,0 0.03,0 0.76,0 0.56,0 0.13,0 0.18,0 0.05,0 0.21,0 0.38,0 0.72,0 0.49,0 0.33,0 0.66,0 1.06,0 0.33,0 0.2,0 0.03,0 0.06,0 0.01,0 0.62,0 0.12,0 0.16,0 0,0 0.52,0 0.5,0 0.42,0 0.9,0 0.15,0 0.15,0 0.03,0 0.21,0 0.09,0 0.53,0 0.79,0 0.08,0 0.77,0 0.3,0 0.1,0 0.19,0 1.21,0 2.91,0 0.08,0 0.32,0 0.29,0 0.34,0 0.11,0 0.04,0 0.16,0 0.21,0 0.13,0 0.07,0 0.56,0 0.4,0 0.05,0 0.82,0 0.06,0 0.31,0 0.24,0 0.68,0 0.09,0 0.46,0 0.09,0 0.62,0 0.42,0 0.61,0 0.39,0 0.04,0 0.81,0 0.29,0 0.52,0 0.1,0 0.42,0 1.9,0.01 0.14,0 0.02,0 0.94,0 2.61,0.01 0.34,0 1.65,0.01 0.2,0 0.5,0 0.02,0 0.03,0 0.29,0 0.42,0.01 0.25,0 0.65,0 0.1,0.01 0.67,0 0.56,0.01 0.22,0 0.1,0 0.22,0 0.02,0.01 0.18,0 0.17,0 0.31,0 0.27,0.01 0.58,0.01 0.67,0.01 0.59,0.01 0.16,0 0.2,0.01 0.01,0 0.33,0 0.84,0.02 1,0.03 1.19,0.04 0.81,0.03 0.01,0 0.48,0.02 0.47,0.02 2.04,0.11 0.35,0.02 0.42,0.03 0.09,0 0.14,0.01 0.24,0.02 0.16,0.01 0.05,0.01 0.2,0.01 0.14,0.01 0.13,0.01 0.53,0.04 0.28,0.03 0.44,0.04 0.1,0.01 0.72,0.07 0.3,0.03 0.24,0.02 0.86,0.1 0,0 0.01,0 0.42,0.05 1.22,0.17 0.17,0.03 0.05,0 0.35,0.06 0.2,0.03 0.12,0.02 0.08,0.01 0.17,0.03 0.44,0.07 1.34,0.25 0.19,0.04 0.47,0.1 0.16,0.03 0.38,0.09 0.12,0.02 0.02,0.01 0.07,0.01 0.14,0.03 0.38,0.09 1.82,0.48 0.03,0.01 0.15,0.04 0.43,0.13 0.08,0.02 1.03,0.33 0.04,0.01 0.84,0.29 0.31,0.11 0.29,0.11 0.6,0.23 1.43,0.58 0.24,0.1 0.35,0.16 0.03,0.01 0.47,0.22 0.43,0.2 0.53,0.26 0.16,0.08 0.21,0.1 0.15,0.08 0.2,0.1 0.6,0.31 0.46,0.25 0.04,0.02 1.1,0.63 1.31,0.78 1.04,0.66 0.01,0 2.03,1.37 0.28,0.19 1.65,1.18 0.09,0.07 0.07,0.05 0.64,0.47 0.29,0.22 0.14,0.1 0.24,0.18 0.27,0.2 0.24,0.18 0.9,0.68 0.01,0.02 0.08,0.06 0.13,0.1 0.38,0.29 1.3,0.99 0.25,0.19 0.58,0.44 0.68,0.52 0.01,0.01 0.19,0.14 0.1,0.07 0.55,0.41 0.42,0.31 0.06,0.05 0.38,0.27 0.62,0.45 0.24,0.17 0.86,0.6 0.38,0.26 1,0.66 0.1,0.07 0.82,0.52 0.04,0.02 1.04,0.61 1.54,0.82 0.44,0.21 0.5,0.23 0.63,0.27 1.02,0.38 0.7,0.23 0.05,0.02 0.65,0.18 0.14,0.04 0.23,0.05 0.13,0.03 0.08,0.02 0.74,0.15 1.28,0.17 0.09,0.01 0.05,0 0.56,0.04 1.04,0.01 1,-0.07 0.26,-0.02 0.38,-0.05 1.65,-0.32 0.36,-0.09 0.36,-0.11 0.13,-0.03 0.11,-0.04 0.95,-0.32 0.46,-0.17 0.31,-0.13 0.76,-0.32 0.83,-0.4 0.88,-0.45 0.75,-0.42 1.98,-1.21 0.05,-0.03 2.03,-1.39 0.03,-0.02 0.06,-0.04 0.86,-0.62 0.72,-0.53 0.81,-0.61 0.15,-0.11 0.73,-0.55 0.04,-0.03 0.2,-0.15 0.17,-0.14 0.26,-0.19 0.42,-0.32 0.78,-0.6 0.1,-0.07 0.58,-0.45 0.94,-0.71 0.73,-0.55 0.05,-0.04 0.95,-0.7 0.05,-0.04 0.11,-0.08 0.01,-0.01 0.36,-0.26 0.26,-0.19 2.09,-1.47 0.63,-0.42 0.18,-0.12 0.16,-0.1 0.18,-0.13 0.24,-0.15 0.18,-0.12 0.84,-0.52 0.28,-0.18 0.37,-0.22 0.3,-0.18 0.55,-0.32 1.19,-0.67 0.41,-0.22 0.05,-0.02 0.32,-0.17 0.08,-0.04 0.03,-0.02 0.1,-0.05 0.06,-0.03 0.57,-0.28 0.22,-0.11 0.07,-0.04 0.18,-0.08 0.54,-0.26 2.04,-0.87 0.25,-0.1 0.12,-0.05 0.34,-0.13 0.43,-0.16 0.24,-0.08 0.26,-0.1 0.02,0 0.29,-0.11 0.11,-0.03 0.29,-0.1 0.53,-0.18 0.43,-0.13 0.08,-0.02 0.59,-0.18 0.04,-0.01 0.39,-0.11 0.07,-0.02 1.07,-0.28 0.89,-0.22 0.08,-0.02 0.05,-0.01 0.76,-0.17 1.96,-0.37 0.64,-0.11 0.93,-0.14 0.16,-0.02 0.4,-0.06 0.09,-0.01 0.02,0 0.22,-0.03 0.17,-0.03 0.1,-0.01 0.07,-0.01 0.52,-0.06 0,0 0.01,0 0.98,-0.11 0.05,-0.01 0.64,-0.06 0.05,-0.01 0.47,-0.04 1.97,-0.16 0.2,-0.01 0.49,-0.03 0.6,-0.04 0.09,-0.01 0.6,-0.03 1.98,-0.09 0.21,-0.01 1.93,-0.07 0.98,-0.02 0.5,-0.02 2.46,-0.05 0.06,0 0.12,0 0.29,0 0.14,0 0.94,-0.02 0.41,0 0.04,0 1.28,-0.02 0.07,0 0.03,0 0.24,0 0.22,0 0.74,-0.01 0.48,0 0.52,0 0.28,0 1.18,-0.01 0.49,0 0.32,0 0.12,0 0.23,0 0.08,-0.01 0.08,0 0.13,0 0.14,0 0.14,0 0.03,0 0.06,0 0.66,0 0.01,0 0.2,0 0.15,0 0.57,0 0.22,0 0.47,0 0.6,0 0.08,0 0.39,-0.01 0.12,0 1.15,0 0.21,0 0.87,0 0.44,0 0.09,0 0.26,0 0.13,0 0.54,0 0.09,0 0.16,0 0.21,0 1.61,0 0.38,0 0.11,0 0.54,0 1.8,0 0.33,0 0.31,0 0.24,0 0.68,0 0.33,0 0.16,0 0.82,0 0.28,0 0.08,0 0.06,0 2.15,0 0.28,0 0.83,0 0.44,0 0.61,0 0.48,0 0.05,0 0.27,0 1.23,0 0.56,0 0.83,0 0.83,0 0.62,0 0.71,0 0.18,0 0.26,0 0.01,0 0.02,0 0.63,0 0.17,0 0.12,0 0.4,0 0.54,0 1,0 0.12,0 0.4,0 0.21,0 0.15,0"
           inkscape:connector-curvature="0" />
        <path
           id="path5025"
           style="fill:none;stroke:#cd9600;stroke-width:4.25;stroke-linecap:butt;stroke-linejoin:round;stroke-miterlimit:1;stroke-opacity:1;stroke-dasharray:none"
           d="m 55.36,41.55 0.27,0 0.16,0 0.21,0 0.01,0 0.27,0 0.78,0 0.11,0 0.95,0 0.41,0 0.49,0 0.29,0 0.97,0 1.01,0 0.89,0 0.61,0 0.71,0 0.03,0 0.21,0 0.98,0 0.13,0 0.49,0 0.78,0 0.3,0 0.45,0 0.43,0 0.72,0 2.74,0 0.99,0 0.44,0 0.46,0 0.06,0 0.44,0 0.83,0 0.02,0 0.35,0 0.07,0 0.24,0 1.28,0 0.05,0 1.93,0 0.44,0 0.29,0 0.2,0 0.07,0 0.08,0 0.47,0 0.16,0 0.76,0 0.04,0 0.35,0 0.03,0 0.76,0 0.56,0 0.13,0 0.18,0 0.05,0 0.21,0 0.38,0 0.72,0 0.49,0 0.33,0 0.66,0 1.06,0 0.33,0 0.2,0 0.03,0 0.06,0 0.01,0 0.62,0 0.12,0 0.16,0 0,0 0.52,0 0.5,0 0.42,0 0.9,0 0.15,0 0.15,0 0.03,0 0.21,0 0.09,0 0.53,0 0.79,0 0.08,0 0.77,0 0.3,0 0.1,0 0.19,0 1.21,0 2.91,0 0.08,0 0.32,0 0.29,0 0.34,0 0.11,0 0.04,0 0.16,0 0.21,0 0.13,0 0.07,0 0.56,0 0.4,0 0.05,0 0.82,0 0.06,0 0.31,0 0.24,0 0.68,0 0.09,0 0.46,0 0.09,0 0.62,0 0.42,0 0.61,0 0.39,0 0.04,0 0.81,0 0.29,0 0.52,0 0.1,0 0.42,0 1.9,0 0.14,0 0.02,0 0.94,0 2.61,0 0.34,0 1.65,0 0.2,0 0.5,0 0.02,0 0.03,0 0.29,0 0.42,0 0.25,0 0.65,0 0.1,0 0.67,0 0.56,0 0.22,0 0.1,0 0.22,0 0.02,0 0.18,0 0.17,0 0.31,0 0.27,0 0.58,0 0.67,0 0.59,0 0.16,0 0.2,0 0.01,0 0.33,0 0.84,0 1,0 1.19,0 0.81,0 0.01,0 0.48,0 0.47,0 2.04,0 0.35,0 0.42,0 0.09,0 0.14,0 0.24,0 0.16,0 0.05,0 0.2,0 0.14,0 0.13,0 0.53,0 0.28,0 0.44,0 0.1,0 0.72,0 0.3,0 0.24,0 0.86,0 0,0 0.01,0 0.42,0 1.22,0 0.17,0 0.05,0 0.35,0 0.2,0 0.12,0 0.08,0 0.17,0 0.44,0 1.34,0 0.19,0 0.47,0 0.16,0 0.38,0 0.12,0 0.02,0 0.07,0 0.14,0 0.38,0 1.82,0 0.03,0 0.15,0 0.43,0 0.08,0 1.03,0 0.04,0 0.84,0 0.31,0 0.29,0 0.6,0 1.43,0 0.24,0 0.35,0 0.03,0 0.47,0 0.43,0 0.53,0 0.16,0 0.21,0 0.15,0 0.2,0 0.6,0 0.46,0 0.04,0 1.1,0 1.31,0 1.04,0 0.01,0 2.03,0 0.28,0 1.65,0 0.09,0 0.07,0 0.64,0 0.29,0 0.14,0 0.24,0 0.27,0 0.24,0 0.9,0 0.01,0 0.08,0 0.13,0 0.38,0 1.3,0 0.25,0 0.58,0 0.68,0 0.01,0 0.19,0 0.1,0 0.55,0 0.42,0 0.06,0 0.38,0 0.62,0 0.24,0 0.86,0 0.38,0 1,0 0.1,0 0.82,0 0.04,0 1.04,0 1.54,0 0.44,0 0.5,0 0.63,0 1.02,0 0.7,0 0.05,0 0.65,0 0.14,0 0.23,0 0.13,0 0.08,0 0.74,0 1.28,0 0.09,0 0.05,0 0.56,0 1.04,0 1,0 0.26,0 0.38,0 1.65,0 0.36,0 0.36,0 0.13,0 0.11,0 0.95,0 0.46,0 0.31,0 0.76,0 0.83,0 0.88,0 0.75,0 1.98,0 0.05,0 2.03,0 0.03,0 0.06,0 0.86,0 0.72,0 0.81,0 0.15,0 0.73,0.01 0.04,0 0.2,0 0.17,0 0.26,0 0.42,0 0.78,0.01 0.1,0 0.58,0 0.94,0.01 0.73,0.01 0.05,0 0.95,0.02 0.05,0 0.11,0 0.01,0 0.36,0.01 0.26,0.01 2.09,0.08 0.63,0.04 0.18,0.01 0.16,0.01 0.18,0.01 0.24,0.02 0.18,0.02 0.84,0.07 0.28,0.03 0.37,0.05 0.3,0.04 0.55,0.07 1.19,0.22 0.41,0.08 0.05,0.01 0.32,0.08 0.08,0.02 0.03,0.01 0.1,0.02 0.06,0.02 0.57,0.16 0.22,0.06 0.07,0.03 0.18,0.05 0.54,0.19 2.04,0.93 0.25,0.14 0.12,0.08 0.34,0.2 0.43,0.29 0.24,0.16 0.26,0.19 0.02,0.02 0.29,0.22 0.11,0.09 0.29,0.23 0.53,0.47 0.43,0.41 0.08,0.07 0.59,0.61 0.04,0.05 0.39,0.44 0.07,0.08 1.07,1.32 0.89,1.26 0.08,0.11 0.05,0.08 0.76,1.2 1.96,3.53 0.64,1.27 0.93,1.98 0.16,0.34 0.4,0.91 0.09,0.19 0.02,0.04 0.22,0.51 0.17,0.39 0.1,0.23 0.07,0.15 0.52,1.2 0,0.01 0.01,0.03 0.98,2.33 0.05,0.13 0.64,1.54 0.05,0.11 0.47,1.15 1.97,4.65 0.2,0.46 0.49,1.08 0.6,1.29 0.09,0.18 0.6,1.22 1.98,3.38 0.21,0.29 1.93,2.02 0.98,0.53 0.5,0.12 2.46,-0.77 0.06,-0.04 0.12,-0.1 0.29,-0.26 0.14,-0.13 0.94,-1.07 0.41,-0.57 0.04,-0.06 1.28,-2.07 0.07,-0.13 0.03,-0.05 0.24,-0.44 0.22,-0.42 0.74,-1.48 0.48,-1.02 0.52,-1.14 0.28,-0.64 1.18,-2.75 0.49,-1.17 0.32,-0.77 0.12,-0.29 0.23,-0.55 0.08,-0.19 0.08,-0.21 0.13,-0.3 0.14,-0.35 0.14,-0.34 0.03,-0.08 0.06,-0.14 0.66,-1.58 0.01,-0.02 0.2,-0.48 0.15,-0.36 0.57,-1.33 0.22,-0.51 0.47,-1.08 0.6,-1.32 0.08,-0.18 0.39,-0.86 0.12,-0.25 1.15,-2.34 0.21,-0.41 0.87,-1.6 0.44,-0.76 0.09,-0.16 0.26,-0.43 0.13,-0.22 0.54,-0.85 0.09,-0.13 0.16,-0.25 0.21,-0.3 1.61,-2.11 0.38,-0.45 0.11,-0.11 0.54,-0.58 1.8,-1.6 0.33,-0.24 0.31,-0.22 0.24,-0.16 0.68,-0.42 0.33,-0.18 0.16,-0.09 0.82,-0.4 0.28,-0.13 0.08,-0.03 0.06,-0.02 2.15,-0.72 0.28,-0.07 0.83,-0.18 0.44,-0.08 0.61,-0.11 0.48,-0.07 0.05,0 0.27,-0.04 1.23,-0.13 0.56,-0.05 0.83,-0.06 0.83,-0.04 0.62,-0.03 0.71,-0.03 0.18,0 0.26,-0.01 0.01,0 0.02,0 0.63,-0.02 0.17,0 0.12,0 0.4,-0.01 0.54,-0.01 1,-0.01 0.12,0 0.4,-0.01 0.21,0 0.15,0"
           inkscape:connector-curvature="0" />
        <path
           id="path5027"
           style="fill:none;stroke:#7cae00;stroke-width:4.25;stroke-linecap:butt;stroke-linejoin:round;stroke-miterlimit:1;stroke-opacity:1;stroke-dasharray:none"
           d="m 55.36,41.55 0.27,0 0.16,0 0.21,0 0.01,0 0.27,0 0.78,0 0.11,0 0.95,0 0.41,0 0.49,0 0.29,0 0.97,0 1.01,0 0.89,0 0.61,0 0.71,0 0.03,0 0.21,0 0.98,0 0.13,0 0.49,0 0.78,0 0.3,0 0.45,0 0.43,0 0.72,0 2.74,0 0.99,0 0.44,0 0.46,0 0.06,0 0.44,0 0.83,0 0.02,0 0.35,0 0.07,0 0.24,0 1.28,0 0.05,0 1.93,0 0.44,0 0.29,0 0.2,0 0.07,0 0.08,0 0.47,0 0.16,0 0.76,0 0.04,0 0.35,0 0.03,0 0.76,0 0.56,0 0.13,0 0.18,0 0.05,0 0.21,0 0.38,0 0.72,0 0.49,0 0.33,0 0.66,0 1.06,0 0.33,0 0.2,0 0.03,0 0.06,0 0.01,0 0.62,0 0.12,0 0.16,0 0,0 0.52,0 0.5,0 0.42,0 0.9,0 0.15,0 0.15,0 0.03,0 0.21,0 0.09,0 0.53,0 0.79,0 0.08,0 0.77,0 0.3,0 0.1,0 0.19,0 1.21,0 2.91,0 0.08,0 0.32,0 0.29,0 0.34,0 0.11,0 0.04,0 0.16,0 0.21,0 0.13,0 0.07,0 0.56,0 0.4,0 0.05,0 0.82,0 0.06,0 0.31,0 0.24,0 0.68,0 0.09,0 0.46,0 0.09,0 0.62,0 0.42,0 0.61,0 0.39,0 0.04,0 0.81,0 0.29,0 0.52,0 0.1,0 0.42,0 1.9,0 0.14,0 0.02,0 0.94,0 2.61,0 0.34,0 1.65,0 0.2,0 0.5,0 0.02,0 0.03,0 0.29,0 0.42,0 0.25,0 0.65,0 0.1,0 0.67,0 0.56,0 0.22,0 0.1,0 0.22,0 0.02,0 0.18,0 0.17,0 0.31,0 0.27,0 0.58,0 0.67,0 0.59,0 0.16,0 0.2,0 0.01,0 0.33,0 0.84,0 1,0 1.19,0 0.81,0 0.01,0 0.48,0 0.47,0 2.04,0 0.35,0 0.42,0 0.09,0 0.14,0 0.24,0 0.16,0 0.05,0 0.2,0 0.14,0 0.13,0 0.53,0 0.28,0 0.44,0 0.1,0 0.72,0 0.3,0 0.24,0 0.86,0 0,0 0.01,0 0.42,0 1.22,0 0.17,0 0.05,0 0.35,0 0.2,0 0.12,0 0.08,0 0.17,0 0.44,0 1.34,0 0.19,0 0.47,0 0.16,0 0.38,0 0.12,0 0.02,0 0.07,0 0.14,0 0.38,0 1.82,0 0.03,0 0.15,0 0.43,0 0.08,0 1.03,0 0.04,0 0.84,0 0.31,0 0.29,0 0.6,0 1.43,0 0.24,0 0.35,0 0.03,0 0.47,0 0.43,0 0.53,0 0.16,0 0.21,0 0.15,0 0.2,0 0.6,0 0.46,0 0.04,0 1.1,0 1.31,0 1.04,0 0.01,0 2.03,0 0.28,0 1.65,0 0.09,0 0.07,0 0.64,0 0.29,0 0.14,0 0.24,0 0.27,0 0.24,0 0.9,0 0.01,0 0.08,0 0.13,0 0.38,0 1.3,0 0.25,0 0.58,0 0.68,0 0.01,0 0.19,0 0.1,0 0.55,0 0.42,0 0.06,0 0.38,0 0.62,0 0.24,0 0.86,0 0.38,0 1,0 0.1,0 0.82,0 0.04,0 1.04,0.01 1.54,0.01 0.44,0 0.5,0.01 0.63,0.01 1.02,0.02 0.7,0.02 0.05,0 0.65,0.03 0.14,0 0.23,0.01 0.13,0.01 0.08,0 0.74,0.04 1.28,0.11 0.09,0.01 0.05,0 0.56,0.06 1.04,0.15 1,0.19 0.26,0.06 0.38,0.1 1.65,0.54 0.36,0.15 0.36,0.17 0.13,0.06 0.11,0.05 0.95,0.54 0.46,0.31 0.31,0.22 0.76,0.61 0.83,0.78 0.88,0.98 0.75,0.96 1.98,3.15 0.05,0.09 2.03,4.25 0.03,0.06 0.06,0.15 0.86,2.1 0.72,1.9 0.81,2.24 0.15,0.45 0.73,2.13 0.04,0.12 0.2,0.58 0.17,0.54 0.26,0.77 0.42,1.29 0.78,2.41 0.1,0.3 0.58,1.8 0.94,2.84 0.73,2.16 0.05,0.12 0.95,2.64 0.05,0.14 0.11,0.27 0.01,0.03 0.36,0.9 0.26,0.64 2.09,4.2 0.63,0.87 0.18,0.22 0.16,0.17 0.18,0.19 0.24,0.21 0.18,0.15 0.84,0.44 0.28,0.06 0.37,0.01 0.3,-0.04 0.55,-0.21 1.19,-1.02 0.41,-0.52 0.05,-0.06 0.32,-0.47 0.08,-0.13 0.03,-0.06 0.1,-0.16 0.06,-0.09 0.57,-1.03 0.22,-0.44 0.07,-0.15 0.18,-0.36 0.54,-1.21 2.04,-5.36 0.25,-0.71 0.12,-0.35 0.34,-1.01 0.43,-1.31 0.24,-0.7 0.26,-0.81 0.02,-0.05 0.29,-0.92 0.11,-0.33 0.29,-0.89 0.53,-1.65 0.43,-1.32 0.08,-0.23 0.59,-1.79 0.04,-0.13 0.39,-1.17 0.07,-0.2 1.07,-3.04 0.89,-2.41 0.08,-0.19 0.05,-0.13 0.76,-1.89 1.96,-4.24 0.64,-1.16 0.93,-1.54 0.16,-0.24 0.4,-0.59 0.09,-0.12 0.02,-0.03 0.22,-0.3 0.17,-0.23 0.1,-0.12 0.07,-0.09 0.52,-0.62 0,0 0.01,-0.02 0.98,-1.02 0.05,-0.06 0.64,-0.56 0.05,-0.04 0.47,-0.37 1.97,-1.2 0.2,-0.1 0.49,-0.21 0.6,-0.23 0.09,-0.03 0.6,-0.19 1.98,-0.45 0.21,-0.03 1.93,-0.23 0.98,-0.08 0.5,-0.03 2.46,-0.09 0.06,0 0.12,0 0.29,-0.01 0.14,0 0.94,-0.01 0.41,-0.01 0.04,0 1.28,-0.01 0.07,0 0.03,0 0.24,0 0.22,0 0.74,0 0.48,-0.01 0.52,0 0.28,0 1.18,0 0.49,0 0.32,0 0.12,0 0.23,0 0.08,0 0.08,0 0.13,0 0.14,0 0.14,0 0.03,0 0.06,0 0.66,0 0.01,0 0.2,0 0.15,0 0.57,0 0.22,0 0.47,0 0.6,0 0.08,0 0.39,0 0.12,0 1.15,0 0.21,0 0.87,0 0.44,0 0.09,0 0.26,0 0.13,0 0.54,0 0.09,0 0.16,0 0.21,0 1.61,0 0.38,0 0.11,0 0.54,0 1.8,0 0.33,0 0.31,0 0.24,0 0.68,0 0.33,0 0.16,0 0.82,0 0.28,0 0.08,0 0.06,0 2.15,0 0.28,0 0.83,0 0.44,0 0.61,0 0.48,0 0.05,0 0.27,0 1.23,0 0.56,0 0.83,0 0.83,0 0.62,0 0.71,0 0.18,0 0.26,0 0.01,0 0.02,0 0.63,0 0.17,0 0.12,0 0.4,0 0.54,0 1,0 0.12,0 0.4,0 0.21,0 0.15,0"
           inkscape:connector-curvature="0" />
        <path
           id="path5029"
           style="fill:none;stroke:#00be67;stroke-width:4.25;stroke-linecap:butt;stroke-linejoin:round;stroke-miterlimit:1;stroke-opacity:1;stroke-dasharray:none"
           d="m 55.36,41.55 0.27,0 0.16,0 0.21,0 0.01,0 0.27,0 0.78,0 0.11,0 0.95,0 0.41,0 0.49,0 0.29,0 0.97,0 1.01,0 0.89,0 0.61,0 0.71,0 0.03,0 0.21,0 0.98,0 0.13,0 0.49,0 0.78,0 0.3,0 0.45,0 0.43,0 0.72,0 2.74,0 0.99,0 0.44,0 0.46,0 0.06,0 0.44,0 0.83,0 0.02,0 0.35,0 0.07,0 0.24,0 1.28,0 0.05,0 1.93,0 0.44,0 0.29,0 0.2,0 0.07,0 0.08,0 0.47,0 0.16,0 0.76,0 0.04,0 0.35,0 0.03,0 0.76,0 0.56,0 0.13,0 0.18,0 0.05,0 0.21,0 0.38,0 0.72,0 0.49,0 0.33,0 0.66,0 1.06,0 0.33,0 0.2,0 0.03,0 0.06,0 0.01,0 0.62,0 0.12,0 0.16,0 0,0 0.52,0 0.5,0 0.42,0 0.9,0 0.15,0 0.15,0 0.03,0 0.21,0 0.09,0 0.53,0 0.79,0.01 0.08,0 0.77,0 0.3,0 0.1,0 0.19,0 1.21,0.01 2.91,0.03 0.08,0 0.32,0.01 0.29,0.01 0.34,0 0.11,0.01 0.04,0 0.16,0 0.21,0 0.13,0.01 0.07,0 0.56,0.02 0.4,0.01 0.05,0 0.82,0.03 0.06,0 0.31,0.02 0.24,0.01 0.68,0.03 0.09,0.01 0.46,0.02 0.09,0.01 0.62,0.04 0.42,0.04 0.61,0.05 0.39,0.04 0.04,0 0.81,0.09 0.29,0.04 0.52,0.07 0.1,0.01 0.42,0.07 1.9,0.36 0.14,0.03 0.02,0.01 0.94,0.24 2.61,0.91 0.34,0.15 1.65,0.84 0.2,0.12 0.5,0.3 0.02,0.01 0.03,0.02 0.29,0.19 0.42,0.28 0.25,0.18 0.65,0.49 0.1,0.08 0.67,0.55 0.56,0.49 0.22,0.2 0.1,0.09 0.22,0.22 0.02,0.02 0.18,0.17 0.17,0.16 0.31,0.32 0.27,0.28 0.58,0.64 0.67,0.77 0.59,0.71 0.16,0.21 0.2,0.25 0.01,0.01 0.33,0.43 0.84,1.14 1,1.44 1.19,1.83 0.81,1.29 0.01,0.01 0.48,0.79 0.47,0.78 2.04,3.46 0.35,0.61 0.42,0.72 0.09,0.16 0.14,0.23 0.24,0.41 0.16,0.26 0.05,0.09 0.2,0.34 0.14,0.24 0.13,0.22 0.53,0.87 0.28,0.46 0.44,0.71 0.1,0.16 0.72,1.12 0.3,0.45 0.24,0.36 0.86,1.21 0,0 0.01,0.02 0.42,0.54 1.22,1.48 0.17,0.18 0.05,0.06 0.35,0.36 0.2,0.19 0.12,0.12 0.08,0.08 0.17,0.15 0.44,0.38 1.34,0.9 0.19,0.1 0.47,0.2 0.16,0.06 0.38,0.12 0.12,0.03 0.02,0 0.07,0.02 0.14,0.02 0.38,0.06 1.82,-0.2 0.03,-0.01 0.15,-0.05 0.43,-0.18 0.08,-0.03 1.03,-0.61 0.04,-0.02 0.84,-0.67 0.31,-0.27 0.29,-0.28 0.6,-0.62 1.43,-1.72 0.24,-0.32 0.35,-0.49 0.03,-0.03 0.47,-0.68 0.43,-0.64 0.53,-0.81 0.16,-0.24 0.21,-0.33 0.15,-0.24 0.2,-0.32 0.6,-0.98 0.46,-0.78 0.04,-0.05 1.1,-1.87 1.31,-2.25 1.04,-1.77 0.01,-0.01 2.03,-3.34 0.28,-0.44 1.65,-2.47 0.09,-0.13 0.07,-0.1 0.64,-0.89 0.29,-0.39 0.14,-0.19 0.24,-0.3 0.27,-0.34 0.24,-0.31 0.9,-1.07 0.01,-0.02 0.08,-0.09 0.13,-0.15 0.38,-0.43 1.3,-1.32 0.25,-0.23 0.58,-0.53 0.68,-0.58 0.01,0 0.19,-0.15 0.1,-0.08 0.55,-0.41 0.42,-0.3 0.06,-0.04 0.38,-0.26 0.62,-0.39 0.24,-0.14 0.86,-0.47 0.38,-0.19 1,-0.45 0.1,-0.04 0.82,-0.32 0.04,-0.01 1.04,-0.35 1.54,-0.4 0.44,-0.1 0.5,-0.1 0.63,-0.12 1.02,-0.15 0.7,-0.09 0.05,-0.01 0.65,-0.07 0.14,-0.02 0.23,-0.02 0.13,-0.01 0.08,-0.01 0.74,-0.06 1.28,-0.09 0.09,0 0.05,-0.01 0.56,-0.02 1.04,-0.05 1,-0.03 0.26,-0.01 0.38,-0.01 1.65,-0.04 0.36,0 0.36,-0.01 0.13,0 0.11,0 0.95,-0.01 0.46,0 0.31,-0.01 0.76,0 0.83,-0.01 0.88,0 0.75,0 1.98,-0.01 0.05,0 2.03,0 0.03,0 0.06,0 0.86,0 0.72,0 0.81,0 0.15,0 0.73,0 0.04,0 0.2,0 0.17,0 0.26,0 0.42,0 0.78,0 0.1,0 0.58,0 0.94,0 0.73,0 0.05,0 0.95,0 0.05,0 0.11,0 0.01,0 0.36,0 0.26,0 2.09,0 0.63,0 0.18,0 0.16,0 0.18,0 0.24,0 0.18,0 0.84,0 0.28,0 0.37,0 0.3,0 0.55,0 1.19,0 0.41,0 0.05,0 0.32,0 0.08,0 0.03,0 0.1,0 0.06,0 0.57,0 0.22,0 0.07,0 0.18,0 0.54,0 2.04,0 0.25,0 0.12,0 0.34,0 0.43,0 0.24,0 0.26,0 0.02,0 0.29,0 0.11,0 0.29,0 0.53,0 0.43,0 0.08,0 0.59,0 0.04,0 0.39,0 0.07,0 1.07,0 0.89,0 0.08,0 0.05,0 0.76,0 1.96,0 0.64,0 0.93,0 0.16,0 0.4,0 0.09,0 0.02,0 0.22,0 0.17,0 0.1,0 0.07,0 0.52,0 0,0 0.01,0 0.98,0 0.05,0 0.64,0 0.05,0 0.47,0 1.97,0 0.2,0 0.49,0 0.6,0 0.09,0 0.6,0 1.98,0 0.21,0 1.93,0 0.98,0 0.5,0 2.46,0 0.06,0 0.12,0 0.29,0 0.14,0 0.94,0 0.41,0 0.04,0 1.28,0 0.07,0 0.03,0 0.24,0 0.22,0 0.74,0 0.48,0 0.52,0 0.28,0 1.18,0 0.49,0 0.32,0 0.12,0 0.23,0 0.08,0 0.08,0 0.13,0 0.14,0 0.14,0 0.03,0 0.06,0 0.66,0 0.01,0 0.2,0 0.15,0 0.57,0 0.22,0 0.47,0 0.6,0 0.08,0 0.39,0 0.12,0 1.15,0 0.21,0 0.87,0 0.44,0 0.09,0 0.26,0 0.13,0 0.54,0 0.09,0 0.16,0 0.21,0 1.61,0 0.38,0 0.11,0 0.54,0 1.8,0 0.33,0 0.31,0 0.24,0 0.68,0 0.33,0 0.16,0 0.82,0 0.28,0 0.08,0 0.06,0 2.15,0 0.28,0 0.83,0 0.44,0 0.61,0 0.48,0 0.05,0 0.27,0 1.23,0 0.56,0 0.83,0 0.83,0 0.62,0 0.71,0 0.18,0 0.26,0 0.01,0 0.02,0 0.63,0 0.17,0 0.12,0 0.4,0 0.54,0 1,0 0.12,0 0.4,0 0.21,0 0.15,0"
           inkscape:connector-curvature="0" />
        <path
           id="path5031"
           style="fill:none;stroke:#00bfc4;stroke-width:4.25;stroke-linecap:butt;stroke-linejoin:round;stroke-miterlimit:1;stroke-opacity:1;stroke-dasharray:none"
           d="m 55.36,42.08 0.27,0.03 0.16,0.02 0.21,0.02 0.01,0 0.27,0.04 0.78,0.1 0.11,0.02 0.95,0.15 0.41,0.07 0.49,0.09 0.29,0.06 0.97,0.21 1.01,0.26 0.89,0.26 0.61,0.2 0.71,0.26 0.03,0.01 0.21,0.08 0.98,0.4 0.13,0.05 0.49,0.23 0.78,0.38 0.3,0.15 0.45,0.25 0.43,0.24 0.72,0.43 2.74,1.97 0.99,0.84 0.44,0.39 0.46,0.42 0.06,0.06 0.44,0.42 0.83,0.83 0.02,0.02 0.35,0.36 0.07,0.08 0.24,0.26 1.28,1.41 0.05,0.06 1.93,2.3 0.44,0.55 0.29,0.36 0.2,0.26 0.07,0.08 0.08,0.1 0.47,0.61 0.16,0.2 0.76,0.99 0.04,0.05 0.35,0.46 0.03,0.04 0.76,1 0.56,0.74 0.13,0.17 0.18,0.23 0.05,0.06 0.21,0.28 0.38,0.49 0.72,0.93 0.49,0.62 0.33,0.42 0.66,0.8 1.06,1.26 0.33,0.38 0.2,0.22 0.03,0.03 0.06,0.07 0.01,0.01 0.62,0.67 0.12,0.12 0.16,0.17 0,0 0.52,0.52 0.5,0.48 0.42,0.37 0.9,0.75 0.15,0.12 0.15,0.11 0.03,0.03 0.21,0.14 0.09,0.07 0.53,0.35 0.79,0.46 0.08,0.04 0.77,0.35 0.3,0.12 0.1,0.03 0.19,0.06 1.21,0.28 2.91,-0.26 0.08,-0.02 0.32,-0.11 0.29,-0.11 0.34,-0.15 0.11,-0.05 0.04,-0.02 0.16,-0.08 0.21,-0.11 0.13,-0.07 0.07,-0.04 0.56,-0.33 0.4,-0.27 0.05,-0.03 0.82,-0.6 0.06,-0.05 0.31,-0.26 0.24,-0.2 0.68,-0.62 0.09,-0.08 0.46,-0.45 0.09,-0.08 0.62,-0.64 0.42,-0.45 0.61,-0.68 0.39,-0.45 0.04,-0.05 0.81,-0.96 0.29,-0.36 0.52,-0.65 0.1,-0.12 0.42,-0.54 1.9,-2.46 0.14,-0.19 0.02,-0.01 0.94,-1.24 2.61,-3.36 0.34,-0.43 1.65,-1.98 0.2,-0.23 0.5,-0.57 0.02,-0.03 0.03,-0.02 0.29,-0.34 0.42,-0.45 0.25,-0.27 0.65,-0.68 0.1,-0.1 0.67,-0.67 0.56,-0.54 0.22,-0.19 0.1,-0.1 0.22,-0.2 0.02,-0.02 0.18,-0.16 0.17,-0.14 0.31,-0.27 0.27,-0.23 0.58,-0.48 0.67,-0.52 0.59,-0.43 0.16,-0.11 0.2,-0.14 0.01,-0.01 0.33,-0.22 0.84,-0.54 1,-0.58 1.19,-0.61 0.81,-0.37 0.01,-0.01 0.48,-0.2 0.47,-0.19 2.04,-0.69 0.35,-0.1 0.42,-0.12 0.09,-0.02 0.14,-0.03 0.24,-0.06 0.16,-0.04 0.05,-0.01 0.2,-0.05 0.14,-0.04 0.13,-0.02 0.53,-0.12 0.28,-0.05 0.44,-0.09 0.1,-0.02 0.72,-0.12 0.3,-0.05 0.24,-0.03 0.86,-0.12 0,0 0.01,0 0.42,-0.05 1.22,-0.13 0.17,-0.02 0.05,-0.01 0.35,-0.03 0.2,-0.01 0.12,-0.01 0.08,-0.01 0.17,-0.01 0.44,-0.04 1.34,-0.08 0.19,-0.01 0.47,-0.02 0.16,-0.01 0.38,-0.02 0.12,0 0.02,-0.01 0.07,0 0.14,0 0.38,-0.02 1.82,-0.06 0.03,0 0.15,0 0.43,-0.01 0.08,0 1.03,-0.02 0.04,0 0.84,-0.02 0.31,0 0.29,0 0.6,-0.01 1.43,-0.01 0.24,-0.01 0.35,0 0.03,0 0.47,0 0.43,0 0.53,-0.01 0.16,0 0.21,0 0.15,0 0.2,0 0.6,0 0.46,0 0.04,0 1.1,-0.01 1.31,0 1.04,0 0.01,0 2.03,0 0.28,0 1.65,0 0.09,0 0.07,0 0.64,0 0.29,0 0.14,0 0.24,0 0.27,0 0.24,0 0.9,0 0.01,0 0.08,0 0.13,0 0.38,0 1.3,0 0.25,0 0.58,0 0.68,0 0.01,0 0.19,0 0.1,0 0.55,0 0.42,0 0.06,0 0.38,0 0.62,0 0.24,0 0.86,0 0.38,0 1,0 0.1,0 0.82,0 0.04,0 1.04,0 1.54,0 0.44,0 0.5,0 0.63,0 1.02,0 0.7,0 0.05,0 0.65,0 0.14,0 0.23,0 0.13,0 0.08,0 0.74,0 1.28,0 0.09,0 0.05,0 0.56,0 1.04,0 1,0 0.26,0 0.38,0 1.65,0 0.36,0 0.36,0 0.13,0 0.11,0 0.95,0 0.46,0 0.31,0 0.76,0 0.83,0 0.88,0 0.75,0 1.98,0 0.05,0 2.03,0 0.03,0 0.06,0 0.86,0 0.72,0 0.81,0 0.15,0 0.73,0 0.04,0 0.2,0 0.17,0 0.26,0 0.42,0 0.78,0 0.1,0 0.58,0 0.94,0 0.73,0 0.05,0 0.95,0 0.05,0 0.11,0 0.01,0 0.36,0 0.26,0 2.09,0 0.63,0 0.18,0 0.16,0 0.18,0 0.24,0 0.18,0 0.84,0 0.28,0 0.37,0 0.3,0 0.55,0 1.19,0 0.41,0 0.05,0 0.32,0 0.08,0 0.03,0 0.1,0 0.06,0 0.57,0 0.22,0 0.07,0 0.18,0 0.54,0 2.04,0 0.25,0 0.12,0 0.34,0 0.43,0 0.24,0 0.26,0 0.02,0 0.29,0 0.11,0 0.29,0 0.53,0 0.43,0 0.08,0 0.59,0 0.04,0 0.39,0 0.07,0 1.07,0 0.89,0 0.08,0 0.05,0 0.76,0 1.96,0 0.64,0 0.93,0 0.16,0 0.4,0 0.09,0 0.02,0 0.22,0 0.17,0 0.1,0 0.07,0 0.52,0 0,0 0.01,0 0.98,0 0.05,0 0.64,0 0.05,0 0.47,0 1.97,0 0.2,0 0.49,0 0.6,0 0.09,0 0.6,0 1.98,0 0.21,0 1.93,0 0.98,0 0.5,0 2.46,0 0.06,0 0.12,0 0.29,0 0.14,0 0.94,0 0.41,0 0.04,0 1.28,0 0.07,0 0.03,0 0.24,0 0.22,0 0.74,0 0.48,0 0.52,0 0.28,0 1.18,0 0.49,0 0.32,0 0.12,0 0.23,0 0.08,0 0.08,0 0.13,0 0.14,0 0.14,0 0.03,0 0.06,0 0.66,0 0.01,0 0.2,0 0.15,0 0.57,0 0.22,0 0.47,0 0.6,0 0.08,0 0.39,0 0.12,0 1.15,0 0.21,0 0.87,0 0.44,0 0.09,0 0.26,0 0.13,0 0.54,0 0.09,0 0.16,0 0.21,0 1.61,0 0.38,0 0.11,0 0.54,0 1.8,0 0.33,0 0.31,0 0.24,0 0.68,0 0.33,0 0.16,0 0.82,0 0.28,0 0.08,0 0.06,0 2.15,0 0.28,0 0.83,0 0.44,0 0.61,0 0.48,0 0.05,0 0.27,0 1.23,0 0.56,0 0.83,0 0.83,0 0.62,0 0.71,0 0.18,0 0.26,0 0.01,0 0.02,0 0.63,0 0.17,0 0.12,0 0.4,0 0.54,0 1,0 0.12,0 0.4,0 0.21,0 0.15,0"
           inkscape:connector-curvature="0" />
        <path
           id="path5033"
           style="fill:none;stroke:#00a9ff;stroke-width:4.25;stroke-linecap:butt;stroke-linejoin:round;stroke-miterlimit:1;stroke-opacity:1;stroke-dasharray:none"
           d="m 55.36,41.55 0.27,0 0.16,0 0.21,0 0.01,0 0.27,0 0.78,0 0.11,0 0.95,0 0.41,0 0.49,0 0.29,0 0.97,0 1.01,0 0.89,0 0.61,0 0.71,0 0.03,0 0.21,0 0.98,0 0.13,0 0.49,0 0.78,0 0.3,0 0.45,0 0.43,0 0.72,0 2.74,0 0.99,0 0.44,0 0.46,0 0.06,0 0.44,0 0.83,0 0.02,0 0.35,0 0.07,0 0.24,0 1.28,0 0.05,0 1.93,0 0.44,0 0.29,0 0.2,0 0.07,0 0.08,0 0.47,0 0.16,0 0.76,0 0.04,0 0.35,0 0.03,0 0.76,0 0.56,0 0.13,0 0.18,0 0.05,0 0.21,0 0.38,0 0.72,0 0.49,0 0.33,0 0.66,0 1.06,0 0.33,0 0.2,0 0.03,0 0.06,0 0.01,0 0.62,0 0.12,0 0.16,0 0,0 0.52,0 0.5,0 0.42,0 0.9,0 0.15,0 0.15,0 0.03,0 0.21,0 0.09,0 0.53,0 0.79,0 0.08,0 0.77,0 0.3,0 0.1,0 0.19,0 1.21,0 2.91,0 0.08,0 0.32,0 0.29,0 0.34,0 0.11,0 0.04,0 0.16,0 0.21,0 0.13,0 0.07,0 0.56,0 0.4,0 0.05,0 0.82,0 0.06,0 0.31,0 0.24,0 0.68,0 0.09,0 0.46,0 0.09,0 0.62,0 0.42,0 0.61,0 0.39,0 0.04,0 0.81,0 0.29,0 0.52,0 0.1,0 0.42,0 1.9,0 0.14,0 0.02,0 0.94,0 2.61,0 0.34,0 1.65,0 0.2,0.01 0.5,0 0.02,0 0.03,0 0.29,0 0.42,0.01 0.25,0.01 0.65,0.02 0.1,0 0.67,0.03 0.56,0.05 0.22,0.02 0.1,0.01 0.22,0.03 0.02,0 0.18,0.03 0.17,0.02 0.31,0.06 0.27,0.06 0.58,0.16 0.67,0.27 0.59,0.33 0.16,0.12 0.2,0.15 0.01,0 0.33,0.29 0.84,0.96 1,1.73 1.19,3.2 0.81,3.07 0.01,0.02 0.48,2.24 0.47,2.49 2.04,14.56 0.35,3.13 0.42,3.91 0.09,0.86 0.14,1.28 0.24,2.39 0.16,1.54 0.05,0.51 0.2,2.04 0.14,1.45 0.13,1.31 0.53,5.41 0.28,2.86 0.44,4.43 0.1,0.97 0.72,6.83 0.3,2.57 0.24,1.97 0.86,6.03 0,0.01 0.01,0.07 0.42,2.19 1.22,3.47 0.17,0.1 0.05,0.01 0.35,-0.17 0.2,-0.27 0.12,-0.24 0.08,-0.18 0.17,-0.45 0.44,-1.59 1.34,-8.27 0.19,-1.51 0.47,-4.04 0.16,-1.4 0.38,-3.66 0.12,-1.13 0.02,-0.21 0.07,-0.68 0.14,-1.34 0.38,-3.84 1.82,-18.36 0.03,-0.27 0.15,-1.45 0.43,-3.93 0.08,-0.7 1.03,-8.43 0.04,-0.24 0.84,-5.72 0.31,-1.78 0.29,-1.58 0.6,-2.92 1.43,-5 0.24,-0.62 0.35,-0.83 0.03,-0.05 0.47,-0.93 0.43,-0.68 0.53,-0.69 0.16,-0.18 0.21,-0.21 0.15,-0.14 0.2,-0.17 0.6,-0.42 0.46,-0.25 0.04,-0.01 1.1,-0.38 1.31,-0.22 1.04,-0.08 0.01,0 2.03,-0.06 0.28,0 1.65,-0.01 0.09,0 0.07,0 0.64,0 0.29,0 0.14,0 0.24,0 0.27,0 0.24,0 0.9,0 0.01,0 0.08,0 0.13,0 0.38,0 1.3,0 0.25,0 0.58,0 0.68,0 0.01,0 0.19,0 0.1,0 0.55,0 0.42,0 0.06,0 0.38,0 0.62,0 0.24,0 0.86,0 0.38,0 1,0 0.1,0 0.82,0 0.04,0 1.04,0 1.54,0 0.44,0 0.5,0 0.63,0 1.02,0 0.7,0 0.05,0 0.65,0 0.14,0 0.23,0 0.13,0 0.08,0 0.74,0 1.28,0 0.09,0 0.05,0 0.56,0 1.04,0 1,0 0.26,0 0.38,0 1.65,0 0.36,0 0.36,0 0.13,0 0.11,0 0.95,0 0.46,0 0.31,0 0.76,0 0.83,0 0.88,0 0.75,0 1.98,0 0.05,0 2.03,0 0.03,0 0.06,0 0.86,0 0.72,0 0.81,0 0.15,0 0.73,0 0.04,0 0.2,0 0.17,0 0.26,0 0.42,0 0.78,0 0.1,0 0.58,0 0.94,0 0.73,0 0.05,0 0.95,0 0.05,0 0.11,0 0.01,0 0.36,0 0.26,0 2.09,0 0.63,0 0.18,0 0.16,0 0.18,0 0.24,0 0.18,0 0.84,0 0.28,0 0.37,0 0.3,0 0.55,0 1.19,0 0.41,0 0.05,0 0.32,0 0.08,0 0.03,0 0.1,0 0.06,0 0.57,0 0.22,0 0.07,0 0.18,0 0.54,0 2.04,0 0.25,0 0.12,0 0.34,0 0.43,0 0.24,0 0.26,0 0.02,0 0.29,0 0.11,0 0.29,0 0.53,0 0.43,0 0.08,0 0.59,0 0.04,0 0.39,0 0.07,0 1.07,0 0.89,0 0.08,0 0.05,0 0.76,0 1.96,0 0.64,0 0.93,0 0.16,0 0.4,0 0.09,0 0.02,0 0.22,0 0.17,0 0.1,0 0.07,0 0.52,0 0,0 0.01,0 0.98,0 0.05,0 0.64,0 0.05,0 0.47,0 1.97,0 0.2,0 0.49,0 0.6,0 0.09,0 0.6,0 1.98,0 0.21,0 1.93,0 0.98,0 0.5,0 2.46,0 0.06,0 0.12,0 0.29,0 0.14,0 0.94,0 0.41,0 0.04,0 1.28,0 0.07,0 0.03,0 0.24,0 0.22,0 0.74,0 0.48,0 0.52,0 0.28,0 1.18,0 0.49,0 0.32,0 0.12,0 0.23,0 0.08,0 0.08,0 0.13,0 0.14,0 0.14,0 0.03,0 0.06,0 0.66,0 0.01,0 0.2,0 0.15,0 0.57,0 0.22,0 0.47,0 0.6,0 0.08,0 0.39,0 0.12,0 1.15,0 0.21,0 0.87,0 0.44,0 0.09,0 0.26,0 0.13,0 0.54,0 0.09,0 0.16,0 0.21,0 1.61,0 0.38,0 0.11,0 0.54,0 1.8,0 0.33,0 0.31,0 0.24,0 0.68,0 0.33,0 0.16,0 0.82,0 0.28,0 0.08,0 0.06,0 2.15,0 0.28,0 0.83,0 0.44,0 0.61,0 0.48,0 0.05,0 0.27,0 1.23,0 0.56,0 0.83,0 0.83,0 0.62,0 0.71,0 0.18,0 0.26,0 0.01,0 0.02,0 0.63,0 0.17,0 0.12,0 0.4,0 0.54,0 1,0 0.12,0 0.4,0 0.21,0 0.15,0"
           inkscape:connector-curvature="0" />
        <path
           id="path5035"
           style="fill:none;stroke:#c77cff;stroke-width:4.25;stroke-linecap:butt;stroke-linejoin:round;stroke-miterlimit:1;stroke-opacity:1;stroke-dasharray:none"
           d="m 55.36,41.55 0.27,0 0.16,0 0.21,0 0.01,0 0.27,0 0.78,0 0.11,0 0.95,0 0.41,0 0.49,0 0.29,0 0.97,0 1.01,0 0.89,0 0.61,0 0.71,0 0.03,0 0.21,0 0.98,0 0.13,0 0.49,0 0.78,0 0.3,0 0.45,0 0.43,0 0.72,0 2.74,0 0.99,0 0.44,0 0.46,0 0.06,0 0.44,0 0.83,0 0.02,0 0.35,0 0.07,0 0.24,0 1.28,0 0.05,0 1.93,0 0.44,0 0.29,0 0.2,0 0.07,0 0.08,0 0.47,0 0.16,0 0.76,0 0.04,0 0.35,0 0.03,0 0.76,0 0.56,0 0.13,0 0.18,0 0.05,0 0.21,0 0.38,0 0.72,0 0.49,0 0.33,0 0.66,0 1.06,0 0.33,0 0.2,0 0.03,0 0.06,0 0.01,0 0.62,0 0.12,0 0.16,0 0,0 0.52,0 0.5,0 0.42,0 0.9,0 0.15,0 0.15,0 0.03,0 0.21,0 0.09,0 0.53,0 0.79,0 0.08,0 0.77,0 0.3,0 0.1,0 0.19,0 1.21,0 2.91,0 0.08,0 0.32,0 0.29,0 0.34,0 0.11,0 0.04,0 0.16,0 0.21,0 0.13,0 0.07,0 0.56,0 0.4,0 0.05,0 0.82,0 0.06,0 0.31,0 0.24,0 0.68,0 0.09,0 0.46,0 0.09,0 0.62,0 0.42,0 0.61,0 0.39,0 0.04,0 0.81,0 0.29,0 0.52,0 0.1,0 0.42,0 1.9,0 0.14,0 0.02,0 0.94,0 2.61,0 0.34,0 1.65,0 0.2,0 0.5,0 0.02,0 0.03,0 0.29,0 0.42,0 0.25,0 0.65,0 0.1,0 0.67,0 0.56,0 0.22,0 0.1,0 0.22,0 0.02,0 0.18,0 0.17,0 0.31,0 0.27,0 0.58,0 0.67,0 0.59,0 0.16,0 0.2,0 0.01,0 0.33,0 0.84,0 1,0 1.19,0 0.81,0 0.01,0 0.48,0 0.47,0 2.04,0 0.35,0 0.42,0 0.09,0 0.14,0 0.24,0 0.16,0 0.05,0 0.2,0 0.14,0 0.13,0 0.53,0 0.28,0 0.44,0 0.1,0 0.72,0 0.3,0 0.24,0 0.86,0 0,0 0.01,0 0.42,0 1.22,0 0.17,0 0.05,0 0.35,0 0.2,0 0.12,0 0.08,0 0.17,0 0.44,0 1.34,0 0.19,0 0.47,0 0.16,0 0.38,0.01 0.12,0 0.02,0 0.07,0 0.14,0 0.38,0 1.82,0.03 0.03,0 0.15,0.01 0.43,0.01 0.08,0 1.03,0.05 0.04,0 0.84,0.06 0.31,0.03 0.29,0.03 0.6,0.08 1.43,0.3 0.24,0.07 0.35,0.11 0.03,0.01 0.47,0.18 0.43,0.19 0.53,0.29 0.16,0.1 0.21,0.13 0.15,0.1 0.2,0.15 0.6,0.5 0.46,0.46 0.04,0.04 1.1,1.39 1.31,2.33 1.04,2.44 0.01,0.02 2.03,6.6 0.28,1.1 1.65,7.43 0.09,0.46 0.07,0.35 0.64,3.32 0.29,1.53 0.14,0.77 0.24,1.29 0.27,1.47 0.24,1.35 0.9,5.07 0.01,0.08 0.08,0.47 0.13,0.74 0.38,2.12 1.3,6.93 0.25,1.21 0.58,2.74 0.68,2.83 0.01,0.04 0.19,0.7 0.1,0.34 0.55,1.79 0.42,1.14 0.06,0.15 0.38,0.81 0.62,0.93 0.24,0.22 0.86,0.14 0.38,-0.26 1,-1.59 0.1,-0.23 0.82,-2.37 0.04,-0.11 1.04,-4.07 1.54,-7.52 0.44,-2.41 0.5,-2.79 0.63,-3.54 1.02,-5.69 0.7,-3.83 0.05,-0.24 0.65,-3.39 0.14,-0.68 0.23,-1.14 0.13,-0.62 0.08,-0.38 0.74,-3.36 1.28,-5.09 0.09,-0.3 0.05,-0.2 0.56,-1.83 1.04,-2.96 1,-2.27 0.26,-0.5 0.38,-0.68 1.65,-2.27 0.36,-0.37 0.36,-0.32 0.13,-0.11 0.11,-0.08 0.95,-0.64 0.46,-0.25 0.31,-0.14 0.76,-0.28 0.83,-0.23 0.88,-0.17 0.75,-0.1 1.98,-0.15 0.05,0 2.03,-0.06 0.03,0 0.06,0 0.86,-0.01 0.72,0 0.81,-0.01 0.15,0 0.73,0 0.04,0 0.2,0 0.17,0 0.26,0 0.42,0 0.78,0 0.1,0 0.58,0 0.94,0 0.73,0 0.05,0 0.95,0 0.05,0 0.11,0 0.01,0 0.36,0 0.26,0 2.09,0 0.63,0 0.18,0 0.16,0 0.18,0 0.24,0 0.18,0 0.84,0 0.28,0 0.37,0 0.3,0 0.55,0 1.19,0 0.41,0 0.05,0 0.32,0 0.08,0 0.03,0 0.1,0 0.06,0 0.57,0 0.22,0 0.07,0 0.18,0 0.54,0 2.04,0 0.25,0 0.12,0 0.34,0 0.43,0 0.24,0 0.26,0 0.02,0 0.29,0 0.11,0 0.29,0 0.53,0 0.43,0 0.08,0 0.59,0 0.04,0 0.39,0 0.07,0 1.07,0 0.89,0 0.08,0 0.05,0 0.76,0 1.96,0 0.64,0 0.93,0 0.16,0 0.4,0 0.09,0 0.02,0 0.22,0 0.17,0 0.1,0 0.07,0 0.52,0 0,0 0.01,0 0.98,0 0.05,0 0.64,0 0.05,0 0.47,0 1.97,0 0.2,0 0.49,0 0.6,0 0.09,0 0.6,0 1.98,0 0.21,0 1.93,0 0.98,0 0.5,0 2.46,0 0.06,0 0.12,0 0.29,0 0.14,0 0.94,0 0.41,0 0.04,0 1.28,0 0.07,0 0.03,0 0.24,0 0.22,0 0.74,0 0.48,0 0.52,0 0.28,0 1.18,0 0.49,0 0.32,0 0.12,0 0.23,0 0.08,0 0.08,0 0.13,0 0.14,0 0.14,0 0.03,0 0.06,0 0.66,0 0.01,0 0.2,0 0.15,0 0.57,0 0.22,0 0.47,0 0.6,0 0.08,0 0.39,0 0.12,0 1.15,0 0.21,0 0.87,0 0.44,0 0.09,0 0.26,0 0.13,0 0.54,0 0.09,0 0.16,0 0.21,0 1.61,0 0.38,0 0.11,0 0.54,0 1.8,0 0.33,0 0.31,0 0.24,0 0.68,0 0.33,0 0.16,0 0.82,0 0.28,0 0.08,0 0.06,0 2.15,0 0.28,0 0.83,0 0.44,0 0.61,0 0.48,0 0.05,0 0.27,0 1.23,0 0.56,0 0.83,0 0.83,0 0.62,0 0.71,0 0.18,0 0.26,0 0.01,0 0.02,0 0.63,0 0.17,0 0.12,0 0.4,0 0.54,0 1,0 0.12,0 0.4,0 0.21,0 0.15,0"
           inkscape:connector-curvature="0" />
        <path
           id="path5037"
           style="fill:none;stroke:#ff61cc;stroke-width:4.25;stroke-linecap:butt;stroke-linejoin:round;stroke-miterlimit:1;stroke-opacity:1;stroke-dasharray:none"
           d="m 55.36,41.55 0.27,0 0.16,0 0.21,0 0.01,0 0.27,0 0.78,0 0.11,0 0.95,0 0.41,0 0.49,0 0.29,0 0.97,0 1.01,0 0.89,0 0.61,0 0.71,0 0.03,0 0.21,0 0.98,0 0.13,0 0.49,0 0.78,0 0.3,0 0.45,0 0.43,0 0.72,0 2.74,0 0.99,0 0.44,0 0.46,0 0.06,0 0.44,0 0.83,0 0.02,0 0.35,0 0.07,0 0.24,0 1.28,0 0.05,0 1.93,0 0.44,0 0.29,0 0.2,0 0.07,0 0.08,0 0.47,0 0.16,0 0.76,0 0.04,0 0.35,0 0.03,0 0.76,0 0.56,0 0.13,0 0.18,0 0.05,0 0.21,0 0.38,0 0.72,0 0.49,0 0.33,0 0.66,0 1.06,0 0.33,0 0.2,0 0.03,0 0.06,0 0.01,0 0.62,0 0.12,0 0.16,0 0,0 0.52,0 0.5,0 0.42,0 0.9,0 0.15,0 0.15,0 0.03,0 0.21,0 0.09,0 0.53,0 0.79,0 0.08,0 0.77,0 0.3,0 0.1,0 0.19,0 1.21,0 2.91,0 0.08,0 0.32,0 0.29,0 0.34,0 0.11,0 0.04,0 0.16,0 0.21,0 0.13,0 0.07,0 0.56,0 0.4,0 0.05,0 0.82,0 0.06,0 0.31,0 0.24,0 0.68,0 0.09,0 0.46,0 0.09,0 0.62,0 0.42,0 0.61,0 0.39,0 0.04,0 0.81,0 0.29,0 0.52,0 0.1,0 0.42,0 1.9,0 0.14,0 0.02,0 0.94,0 2.61,0 0.34,0 1.65,0 0.2,0 0.5,0 0.02,0 0.03,0 0.29,0 0.42,0 0.25,0 0.65,0 0.1,0 0.67,0 0.56,0 0.22,0 0.1,0 0.22,0 0.02,0 0.18,0 0.17,0 0.31,0 0.27,0 0.58,0 0.67,0 0.59,0 0.16,0 0.2,0 0.01,0 0.33,0 0.84,0 1,0 1.19,0 0.81,0 0.01,0 0.48,0 0.47,0 2.04,0 0.35,0 0.42,0 0.09,0 0.14,0 0.24,0 0.16,0 0.05,0 0.2,0 0.14,0 0.13,0 0.53,0 0.28,0 0.44,0 0.1,0 0.72,0 0.3,0 0.24,0 0.86,0 0,0 0.01,0 0.42,0 1.22,0 0.17,0 0.05,0 0.35,0 0.2,0 0.12,0 0.08,0 0.17,0 0.44,0 1.34,0 0.19,0 0.47,0 0.16,0 0.38,0 0.12,0 0.02,0 0.07,0 0.14,0 0.38,0 1.82,0.01 0.03,0 0.15,0 0.43,0 0.08,0 1.03,0 0.04,0 0.84,0 0.31,0 0.29,0.01 0.6,0 1.43,0.01 0.24,0 0.35,0 0.03,0 0.47,0.01 0.43,0 0.53,0.01 0.16,0 0.21,0 0.15,0 0.2,0.01 0.6,0 0.46,0.01 0.04,0 1.1,0.02 1.31,0.03 1.04,0.03 0.01,0 2.03,0.08 0.28,0.01 1.65,0.1 0.09,0 0.07,0.01 0.64,0.04 0.29,0.02 0.14,0.01 0.24,0.02 0.27,0.03 0.24,0.02 0.9,0.08 0.01,0 0.08,0.01 0.13,0.01 0.38,0.05 1.3,0.16 0.25,0.03 0.58,0.09 0.68,0.1 0.01,0.01 0.19,0.03 0.1,0.01 0.55,0.1 0.42,0.08 0.06,0.02 0.38,0.07 0.62,0.14 0.24,0.06 0.86,0.21 0.38,0.1 1,0.29 0.1,0.03 0.82,0.27 0.04,0.01 1.04,0.38 1.54,0.64 0.44,0.21 0.5,0.24 0.63,0.32 1.02,0.55 0.7,0.41 0.05,0.03 0.65,0.41 0.14,0.08 0.23,0.16 0.13,0.08 0.08,0.05 0.74,0.51 1.28,0.94 0.09,0.07 0.05,0.04 0.56,0.44 1.04,0.86 1,0.86 0.26,0.24 0.38,0.34 1.65,1.57 0.36,0.36 0.36,0.35 0.13,0.13 0.11,0.11 0.95,0.97 0.46,0.47 0.31,0.33 0.76,0.79 0.83,0.87 0.88,0.93 0.75,0.8 1.98,2.04 0.05,0.04 2.03,1.97 0.03,0.02 0.06,0.06 0.86,0.77 0.72,0.61 0.81,0.65 0.15,0.11 0.73,0.54 0.04,0.02 0.2,0.14 0.17,0.12 0.26,0.17 0.42,0.26 0.78,0.45 0.1,0.05 0.58,0.29 0.94,0.4 0.73,0.25 0.05,0.01 0.95,0.24 0.05,0.01 0.11,0.01 0.01,0.01 0.36,0.05 0.26,0.03 2.09,-0.01 0.63,-0.1 0.18,-0.04 0.16,-0.03 0.18,-0.05 0.24,-0.06 0.18,-0.05 0.84,-0.28 0.28,-0.11 0.37,-0.16 0.3,-0.14 0.55,-0.28 1.19,-0.69 0.41,-0.27 0.05,-0.03 0.32,-0.22 0.08,-0.06 0.03,-0.03 0.1,-0.07 0.06,-0.04 0.57,-0.42 0.22,-0.18 0.07,-0.05 0.18,-0.14 0.54,-0.45 2.04,-1.83 0.25,-0.23 0.12,-0.12 0.34,-0.33 0.43,-0.43 0.24,-0.23 0.26,-0.26 0.02,-0.02 0.29,-0.3 0.11,-0.11 0.29,-0.3 0.53,-0.55 0.43,-0.45 0.08,-0.08 0.59,-0.62 0.04,-0.04 0.39,-0.42 0.07,-0.07 1.07,-1.12 0.89,-0.94 0.08,-0.08 0.05,-0.05 0.76,-0.8 1.96,-1.97 0.64,-0.62 0.93,-0.88 0.16,-0.14 0.4,-0.37 0.09,-0.08 0.02,-0.02 0.22,-0.2 0.17,-0.15 0.1,-0.09 0.07,-0.06 0.52,-0.44 0,0 0.01,-0.01 0.98,-0.82 0.05,-0.04 0.64,-0.5 0.05,-0.04 0.47,-0.36 1.97,-1.37 0.2,-0.14 0.49,-0.3 0.6,-0.36 0.09,-0.05 0.6,-0.35 1.98,-1 0.21,-0.1 1.93,-0.79 0.98,-0.35 0.5,-0.16 2.46,-0.68 0.06,-0.01 0.12,-0.03 0.29,-0.06 0.14,-0.03 0.94,-0.19 0.41,-0.08 0.04,-0.01 1.28,-0.21 0.07,-0.01 0.03,-0.01 0.24,-0.03 0.22,-0.03 0.74,-0.1 0.48,-0.06 0.52,-0.06 0.28,-0.03 1.18,-0.11 0.49,-0.04 0.32,-0.02 0.12,-0.01 0.23,-0.02 0.08,0 0.08,-0.01 0.13,-0.01 0.14,-0.01 0.14,-0.01 0.03,0 0.06,0 0.66,-0.04 0.01,0 0.2,-0.02 0.15,0 0.57,-0.03 0.22,-0.01 0.47,-0.02 0.6,-0.03 0.08,0 0.39,-0.02 0.12,0 1.15,-0.04 0.21,0 0.87,-0.02 0.44,-0.01 0.09,-0.01 0.26,0 0.13,0 0.54,-0.01 0.09,-0.01 0.16,0 0.21,0 1.61,-0.02 0.38,-0.01 0.11,0 0.54,0 1.8,-0.02 0.33,0 0.31,0 0.24,0 0.68,-0.01 0.33,0 0.16,0 0.82,0 0.28,0 0.08,0 0.06,0 2.15,-0.01 0.28,0 0.83,0 0.44,0 0.61,0 0.48,0 0.05,0 0.27,0 1.23,0 0.56,0 0.83,0 0.83,0 0.62,0 0.71,0 0.18,0 0.26,0 0.01,0 0.02,0 0.63,0 0.17,0 0.12,0 0.4,0 0.54,0 1,0 0.12,0 0.4,0 0.21,0 0.15,0"
           inkscape:connector-curvature="0" />
      </g>
    </g>
    <g
       style="stroke-width:2.7103188;stroke-miterlimit:4;stroke-dasharray:none"
       id="g5041"
       transform="matrix(0.22928025,0,0,-0.22928025,222.23948,144.13945)">
      <path
         sodipodi:nodetypes="cc"
         id="path5043"
         style="fill:none;stroke:#000000;stroke-width:2.7103188;stroke-linecap:butt;stroke-linejoin:round;stroke-miterlimit:4;stroke-opacity:1;stroke-dasharray:none"
         d="m 44,37.28 0,82.7499"
         inkscape:connector-curvature="0" />
    </g>
    <g
       style="stroke-width:2.7103188;stroke-miterlimit:4;stroke-dasharray:none"
       id="g5083"
       transform="matrix(0.22928025,0,0,-0.22928025,222.23948,144.13945)">
      <path
         sodipodi:nodetypes="cc"
         id="path5085"
         style="fill:none;stroke:#000000;stroke-width:2.7103188;stroke-linecap:butt;stroke-linejoin:round;stroke-miterlimit:4;stroke-opacity:1;stroke-dasharray:none"
         d="m 44,37.28 202.17855,0.276753"
         inkscape:connector-curvature="0" />
    </g>
    <text
       inkscape:export-ydpi="177.8"
       inkscape:export-xdpi="177.8"
       inkscape:export-filename="/home/max/Documents/manuscripts/abm/niche0.png"
       sodipodi:linespacing="125%"
       id="text4385"
       y="139.80602"
       x="255.44435"
       style="font-size:2.60210156px;font-style:normal;font-variant:normal;font-weight:normal;font-stretch:normal;text-align:center;line-height:125%;letter-spacing:0px;word-spacing:0px;text-anchor:middle;fill:#000000;fill-opacity:1;stroke:none;font-family:Helvetica;-inkscape-font-specification:Helvetica"
       xml:space="preserve"><tspan
         y="139.80602"
         x="255.44435"
         id="tspan4387"
         sodipodi:role="line">Within-host environmental condition</tspan></text>
    <text
       transform="matrix(0,-1,1,0,0,0)"
       sodipodi:linespacing="125%"
       id="text5945"
       y="229.468"
       x="-126.15136"
       style="font-size:2.60210156px;font-style:normal;font-variant:normal;font-weight:normal;font-stretch:normal;text-align:center;line-height:125%;letter-spacing:0px;word-spacing:0px;text-anchor:middle;fill:#000000;fill-opacity:1;stroke:none;font-family:Helvetica;-inkscape-font-specification:Helvetica"
       xml:space="preserve"><tspan
         y="229.468"
         x="-126.15136"
         id="tspan5947"
         sodipodi:role="line">Pr(establishment)</tspan></text>
    <path
       d="m 600,272.36218 c 0,80.47578 -70.35525,145.71428 -157.14285,145.71428 -86.7876,0 -157.14286,-65.2385 -157.14286,-145.71428 0,-80.47577 70.35526,-145.71428 157.14286,-145.71428 86.7876,0 157.14285,65.23851 157.14285,145.71428 z"
       sodipodi:ry="145.71428"
       sodipodi:rx="157.14285"
       sodipodi:cy="272.36218"
       sodipodi:cx="442.85715"
       id="path2985-6-7-4"
       style="fill:#000000;fill-opacity:0;stroke:#000000;stroke-width:2.22335935;stroke-linejoin:bevel;stroke-miterlimit:4;stroke-opacity:1;stroke-dasharray:none;stroke-dashoffset:0"
       sodipodi:type="arc"
       transform="matrix(0.20567417,0,0,0.20567417,259.33665,72.93507)" />
    <path
       transform="matrix(0.30591497,0,0,0.30591497,185.44004,197.21324)"
       sodipodi:type="arc"
       style="fill:#000000;fill-opacity:0;stroke:#000000;stroke-width:1.38888884;stroke-linejoin:bevel;stroke-miterlimit:4;stroke-opacity:1;stroke-dasharray:none;stroke-dashoffset:0"
       id="path2985-6"
       sodipodi:cx="442.85715"
       sodipodi:cy="272.36218"
       sodipodi:rx="157.14285"
       sodipodi:ry="145.71428"
       d="m 600,272.36218 c 0,80.47578 -70.35525,145.71428 -157.14285,145.71428 -86.7876,0 -157.14286,-65.2385 -157.14286,-145.71428 0,-80.47577 70.35526,-145.71428 157.14286,-145.71428 86.7876,0 157.14285,65.23851 157.14285,145.71428 z" />
    <text
       xml:space="preserve"
       style="font-size:6.78391075px;font-style:normal;font-weight:normal;text-align:center;line-height:125%;letter-spacing:0px;word-spacing:0px;text-anchor:middle;fill:#000000;fill-opacity:1;stroke:none;font-family:helvetica;-inkscape-font-specification:helvetica"
       x="321.2836"
       y="256.31223"
       id="text3034-2"
       sodipodi:linespacing="125%"><tspan
         sodipodi:role="line"
         id="tspan3036-6"
         x="321.2836"
         y="256.31223">Local host community</tspan></text>
    <text
       xml:space="preserve"
       style="font-size:6.78391075px;font-style:normal;font-weight:normal;text-align:center;line-height:125%;letter-spacing:0px;word-spacing:0px;text-anchor:middle;fill:#000000;fill-opacity:1;stroke:none;font-family:helvetica;-inkscape-font-specification:helvetica"
       x="233.33214"
       y="235.34312"
       id="text3044-4"
       sodipodi:linespacing="125%"><tspan
         sodipodi:role="line"
         id="tspan3046"
         x="233.33214"
         y="235.34312">Regional symbiont</tspan><tspan
         sodipodi:role="line"
         x="233.33214"
         y="243.82301"
         id="tspan3048-4">pool</tspan></text>
    <path
       style="fill:none;stroke:#000000;stroke-width:0.61671913px;stroke-linecap:butt;stroke-linejoin:miter;stroke-opacity:1;marker-end:url(#Arrow1Lend)"
       d="m 247.13136,242.45006 40.01036,26.38715"
       id="path4268-4"
       inkscape:connector-curvature="0"
       sodipodi:nodetypes="cc" />
    <flowRoot
       xml:space="preserve"
       id="flowRoot4456"
       style="font-size:11px;font-style:normal;font-weight:normal;text-align:center;line-height:125%;letter-spacing:0px;word-spacing:0px;text-anchor:middle;fill:#000000;fill-opacity:1;stroke:none;font-family:Sans"
       transform="matrix(0.61671915,0,0,0.61671915,101.07123,121.49711)"><flowRegion
         id="flowRegion4458"><rect
           id="rect4460"
           width="131.67717"
           height="108.00487"
           x="66.085175"
           y="118.78584" /></flowRegion><flowPara
         id="flowPara4462" /></flowRoot>    <path
       sodipodi:type="arc"
       style="fill:none;stroke:#000000;stroke-width:1;stroke-miterlimit:4;stroke-opacity:1;stroke-dasharray:none;stroke-dashoffset:0"
       id="path3222"
       sodipodi:cx="240.58099"
       sodipodi:cy="165.36435"
       sodipodi:rx="102.52852"
       sodipodi:ry="94.730568"
       d="m 343.10951,165.36435 c 0,52.31825 -45.90358,94.73057 -102.52852,94.73057 -56.62493,0 -102.52852,-42.41232 -102.52852,-94.73057 0,-52.31825 45.90359,-94.730569 102.52852,-94.730569 56.62494,0 102.52852,42.412319 102.52852,94.730569 z"
       transform="matrix(0.6789392,0,0,0.68594125,156.36508,166.64571)" />
    <text
       xml:space="preserve"
       style="font-size:11.10094452px;font-style:normal;font-variant:normal;font-weight:normal;font-stretch:normal;text-align:center;line-height:125%;letter-spacing:0px;word-spacing:0px;text-anchor:middle;fill:#000000;fill-opacity:1;stroke:none;font-family:Helvetica;-inkscape-font-specification:Helvetica"
       x="320.5195"
       y="225.87997"
       id="text4010"
       sodipodi:linespacing="125%"><tspan
         sodipodi:role="line"
         id="tspan4012"
         x="320.5195"
         y="225.87997"
         style="font-size:6.78391075px">Landscape</tspan></text>
    <text
       xml:space="preserve"
       style="font-size:6.78391075px;font-style:normal;font-weight:normal;text-align:center;line-height:125%;letter-spacing:0px;word-spacing:0px;text-anchor:middle;fill:#000000;fill-opacity:1;stroke:none;font-family:helvetica;-inkscape-font-specification:helvetica"
       x="438.76526"
       y="228.92705"
       id="text3044-6"
       sodipodi:linespacing="125%"><tspan
         sodipodi:role="line"
         id="tspan3046-7"
         x="438.76526"
         y="228.92705">Regional host</tspan><tspan
         sodipodi:role="line"
         x="438.76526"
         y="237.40694"
         id="tspan3048-0">pool</tspan></text>
    <path
       style="fill:none;stroke:#000000;stroke-width:0.61671913px;stroke-linecap:butt;stroke-linejoin:miter;stroke-opacity:1;marker-end:url(#Arrow1Lend)"
       d="m 424.29023,233.74808 -45.59778,24.93629"
       id="path4098"
       inkscape:connector-curvature="0"
       sodipodi:nodetypes="cc" />
    <text
       sodipodi:linespacing="125%"
       id="text4452-3"
       y="258.87216"
       x="419.62122"
       style="font-size:6.83564711px;font-style:normal;font-weight:normal;text-align:center;line-height:125%;letter-spacing:0px;word-spacing:0px;text-anchor:middle;fill:#000000;fill-opacity:1;stroke:none;font-family:Sans"
       xml:space="preserve"><tspan
         style="fill:#0000ff;font-family:Helvetica;-inkscape-font-specification:Helvetica"
         y="258.87216"
         x="419.62122"
         id="tspan4454-1"
         sodipodi:role="line">(Host colonization)</tspan></text>
    <text
       sodipodi:linespacing="125%"
       id="text4960-2"
       y="328.96774"
       x="433.51111"
       style="font-size:11.185606px;font-style:normal;font-variant:normal;font-weight:normal;font-stretch:normal;text-align:center;line-height:125%;letter-spacing:0px;word-spacing:0px;text-anchor:middle;fill:#000000;fill-opacity:1;stroke:none;font-family:Helvetica;-inkscape-font-specification:Helvetica"
       xml:space="preserve"><tspan
         style="font-size:6.83564711px;fill:#0000ff"
         y="328.96774"
         x="433.51111"
         id="tspan4962-2"
         sodipodi:role="line">(Host extirpation)</tspan></text>
    <path
       style="fill:none;stroke:#000000;stroke-width:0.69999999;stroke-linecap:butt;stroke-linejoin:miter;stroke-miterlimit:4;stroke-opacity:1;stroke-dasharray:none;marker-end:url(#marker15700)"
       d="m 349.18562,301.66154 c 42.31575,4.5223 69.77252,50.39127 69.77252,50.39127"
       id="path16130"
       inkscape:connector-curvature="0"
       sodipodi:nodetypes="cc" />
  </g>
</svg>
