<?xml version="1.0" encoding="UTF-8" standalone="no"?>
<!-- Created with Inkscape (http://www.inkscape.org/) -->

<svg
   xmlns:dc="http://purl.org/dc/elements/1.1/"
   xmlns:cc="http://creativecommons.org/ns#"
   xmlns:rdf="http://www.w3.org/1999/02/22-rdf-syntax-ns#"
   xmlns:svg="http://www.w3.org/2000/svg"
   xmlns="http://www.w3.org/2000/svg"
   xmlns:sodipodi="http://sodipodi.sourceforge.net/DTD/sodipodi-0.dtd"
   xmlns:inkscape="http://www.inkscape.org/namespaces/inkscape"
   width="448.5"
   height="322.90625"
   id="svg2"
   version="1.1"
   inkscape:version="0.48.4 r9939"
   sodipodi:docname="within-pop.pdf">
  <defs
     id="defs4" />
  <sodipodi:namedview
     id="base"
     pagecolor="#ffffff"
     bordercolor="#666666"
     borderopacity="1.0"
     inkscape:pageopacity="0.0"
     inkscape:pageshadow="2"
     inkscape:zoom="0.79867457"
     inkscape:cx="278.55401"
     inkscape:cy="122.80791"
     inkscape:document-units="px"
     inkscape:current-layer="layer1"
     showgrid="false"
     fit-margin-top="0"
     fit-margin-left="0"
     fit-margin-right="0"
     fit-margin-bottom="0"
     inkscape:window-width="1600"
     inkscape:window-height="843"
     inkscape:window-x="0"
     inkscape:window-y="33"
     inkscape:window-maximized="1" />
  <metadata
     id="metadata7">
    <rdf:RDF>
      <cc:Work
         rdf:about="">
        <dc:format>image/svg+xml</dc:format>
        <dc:type
           rdf:resource="http://purl.org/dc/dcmitype/StillImage" />
        <dc:title></dc:title>
      </cc:Work>
    </rdf:RDF>
  </metadata>
  <g
     inkscape:label="Layer 1"
     inkscape:groupmode="layer"
     id="layer1"
     transform="translate(-20.78125,-149.03125)">
    <path
       sodipodi:type="arc"
       style="fill:#ffffff;fill-opacity:1;stroke:#000000;stroke-width:2;stroke-linejoin:miter;stroke-miterlimit:4;stroke-opacity:1;stroke-dasharray:none;stroke-dashoffset:0"
       id="path2985"
       sodipodi:cx="116.77889"
       sodipodi:cy="317.8399"
       sodipodi:rx="71.929024"
       sodipodi:ry="30.464058"
       d="m 188.70792,317.8399 c 0,16.82484 -32.20372,30.46406 -71.92903,30.46406 -39.7253,0 -71.929021,-13.63922 -71.929021,-30.46406 0,-16.82483 32.203721,-30.46405 71.929021,-30.46405 39.72531,0 71.92903,13.63922 71.92903,30.46405 z"
       transform="matrix(0.39944821,0,0,0.36320926,312.36212,61.445623)" />
    <path
       transform="matrix(0.7370017,0,0,0.61360757,239.84259,21.45769)"
       sodipodi:type="arc"
       style="fill:#ffffff;fill-opacity:1;stroke:#000000;stroke-width:2;stroke-linejoin:miter;stroke-miterlimit:4;stroke-opacity:1;stroke-dasharray:none;stroke-dashoffset:0"
       id="path2985-0"
       sodipodi:cx="116.77889"
       sodipodi:cy="317.8399"
       sodipodi:rx="71.929024"
       sodipodi:ry="30.464058"
       d="m 188.70792,317.8399 c 0,16.82484 -32.20372,30.46406 -71.92903,30.46406 -39.7253,0 -71.929021,-13.63922 -71.929021,-30.46406 0,-16.82483 32.203721,-30.46405 71.929021,-30.46405 39.72531,0 71.92903,13.63922 71.92903,30.46405 z" />
    <path
       transform="matrix(0.47994402,0,0,0.47994402,371.80265,45.868071)"
       sodipodi:type="arc"
       style="fill:#ffffff;fill-opacity:1;stroke:#000000;stroke-width:2;stroke-linejoin:miter;stroke-miterlimit:4;stroke-opacity:1;stroke-dasharray:none;stroke-dashoffset:0"
       id="path2985-5"
       sodipodi:cx="116.77889"
       sodipodi:cy="317.8399"
       sodipodi:rx="71.929024"
       sodipodi:ry="30.464058"
       d="m 188.70792,317.8399 c 0,16.82484 -32.20372,30.46406 -71.92903,30.46406 -39.7253,0 -71.929021,-13.63922 -71.929021,-30.46406 0,-16.82483 32.203721,-30.46405 71.929021,-30.46405 39.72531,0 71.92903,13.63922 71.92903,30.46405 z" />
    <path
       transform="matrix(0.30736276,0,0,0.29910073,395.61177,66.388538)"
       sodipodi:type="arc"
       style="fill:#ffffff;fill-opacity:1;stroke:#000000;stroke-width:2;stroke-linejoin:miter;stroke-miterlimit:4;stroke-opacity:1;stroke-dasharray:none;stroke-dashoffset:0"
       id="path2985-53"
       sodipodi:cx="116.77889"
       sodipodi:cy="317.8399"
       sodipodi:rx="71.929024"
       sodipodi:ry="30.464058"
       d="m 188.70792,317.8399 c 0,16.82484 -32.20372,30.46406 -71.92903,30.46406 -39.7253,0 -71.929021,-13.63922 -71.929021,-30.46406 0,-16.82483 32.203721,-30.46405 71.929021,-30.46405 39.72531,0 71.92903,13.63922 71.92903,30.46405 z" />
    <path
       style="fill:none;stroke:#000000;stroke-width:0.47994402px;stroke-linecap:butt;stroke-linejoin:miter;stroke-opacity:1"
       d="m 342.32387,198.40697 8.24439,-10.72262"
       id="path3019"
       inkscape:connector-curvature="0"
       sodipodi:nodetypes="cc" />
    <path
       style="fill:none;stroke:#000000;stroke-width:0.47994402px;stroke-linecap:butt;stroke-linejoin:miter;stroke-opacity:1"
       d="m 376.85225,210.59117 18.10039,-8.11634"
       id="path3021"
       inkscape:connector-curvature="0"
       sodipodi:nodetypes="cc" />
    <path
       style="fill:none;stroke:#000000;stroke-width:0.47994402px;stroke-linecap:butt;stroke-linejoin:miter;stroke-opacity:1"
       d="m 430.28683,183.38625 0.87307,-12.71192"
       id="path3023"
       inkscape:connector-curvature="0"
       sodipodi:nodetypes="cc" />
    <path
       style="fill:none;stroke:#000000;stroke-width:0.47994402px;stroke-linecap:butt;stroke-linejoin:miter;stroke-opacity:1"
       d="m 384.82279,171.84139 25.15704,-7.94986"
       id="path3025"
       inkscape:connector-curvature="0"
       sodipodi:nodetypes="cc" />
    <path
       style="fill:none;stroke:#000000;stroke-width:0.47994402px;stroke-linecap:butt;stroke-linejoin:miter;stroke-opacity:1"
       d="m 384.393,182.57397 12.70546,8.75918"
       id="path3027"
       inkscape:connector-curvature="0"
       sodipodi:nodetypes="cc" />
    <rect
       style="fill:none;stroke:#000000;stroke-width:0.95988804;stroke-linejoin:round;stroke-miterlimit:4;stroke-opacity:1;stroke-dasharray:1.91977609, 1.91977609;stroke-dashoffset:0"
       id="rect3275"
       width="199.30312"
       height="91.389763"
       x="269.50357"
       y="149.50861" />
    <text
       xml:space="preserve"
       style="font-size:6.71921635px;font-style:normal;font-weight:normal;text-align:center;line-height:125%;letter-spacing:0px;word-spacing:0px;text-anchor:middle;fill:#000000;fill-opacity:1;stroke:none;font-family:Sans"
       x="221.00063"
       y="194.38657"
       id="text4045"
       sodipodi:linespacing="125%"><tspan
         sodipodi:role="line"
         id="tspan4047"
         x="221.00063"
         y="194.38657"
         style="font-size:14px">Within hosts</tspan></text>
    <path
       sodipodi:type="arc"
       style="fill:#ffffff;fill-opacity:1;stroke:#000000;stroke-width:2;stroke-linejoin:miter;stroke-miterlimit:4;stroke-opacity:1;stroke-dasharray:none;stroke-dashoffset:0"
       id="path2985-6"
       sodipodi:cx="116.77889"
       sodipodi:cy="317.8399"
       sodipodi:rx="71.929024"
       sodipodi:ry="30.464058"
       d="m 188.70792,317.8399 c 0,16.82484 -32.20372,30.46406 -71.92903,30.46406 -39.7253,0 -71.929021,-13.63922 -71.929021,-30.46406 0,-16.82483 32.203721,-30.46405 71.929021,-30.46405 39.72531,0 71.92903,13.63922 71.92903,30.46405 z"
       transform="matrix(0.83228084,0,0,0.75677421,111.08734,97.023023)" />
    <path
       transform="matrix(1.5355993,0,0,1.2784982,-40.012638,13.705108)"
       sodipodi:type="arc"
       style="fill:#ffffff;fill-opacity:1;stroke:#000000;stroke-width:2;stroke-linejoin:miter;stroke-miterlimit:4;stroke-opacity:1;stroke-dasharray:none;stroke-dashoffset:0"
       id="path2985-0-4"
       sodipodi:cx="116.77889"
       sodipodi:cy="317.8399"
       sodipodi:rx="71.929024"
       sodipodi:ry="30.464058"
       d="m 188.70792,317.8399 c 0,16.82484 -32.20372,30.46406 -71.92903,30.46406 -39.7253,0 -71.929021,-13.63922 -71.929021,-30.46406 0,-16.82483 32.203721,-30.46405 71.929021,-30.46405 39.72531,0 71.92903,13.63922 71.92903,30.46405 z" />
    <path
       transform="translate(234.93622,64.566003)"
       sodipodi:type="arc"
       style="fill:#ffffff;fill-opacity:1;stroke:#000000;stroke-width:2;stroke-linejoin:miter;stroke-miterlimit:4;stroke-opacity:1;stroke-dasharray:none;stroke-dashoffset:0"
       id="path2985-5-9"
       sodipodi:cx="116.77889"
       sodipodi:cy="317.8399"
       sodipodi:rx="71.929024"
       sodipodi:ry="30.464058"
       d="m 188.70792,317.8399 c 0,16.82484 -32.20372,30.46406 -71.92903,30.46406 -39.7253,0 -71.929021,-13.63922 -71.929021,-30.46406 0,-16.82483 32.203721,-30.46405 71.929021,-30.46405 39.72531,0 71.92903,13.63922 71.92903,30.46405 z" />
    <path
       transform="matrix(0.64041376,0,0,0.62319919,284.54432,107.32196)"
       sodipodi:type="arc"
       style="fill:#ffffff;fill-opacity:1;stroke:#000000;stroke-width:2;stroke-linejoin:miter;stroke-miterlimit:4;stroke-opacity:1;stroke-dasharray:none;stroke-dashoffset:0"
       id="path2985-53-0"
       sodipodi:cx="116.77889"
       sodipodi:cy="317.8399"
       sodipodi:rx="71.929024"
       sodipodi:ry="30.464058"
       d="m 188.70792,317.8399 c 0,16.82484 -32.20372,30.46406 -71.92903,30.46406 -39.7253,0 -71.929021,-13.63922 -71.929021,-30.46406 0,-16.82483 32.203721,-30.46405 71.929021,-30.46405 39.72531,0 71.92903,13.63922 71.92903,30.46405 z" />
    <path
       style="fill:none;stroke:#000000;stroke-width:1px;stroke-linecap:butt;stroke-linejoin:miter;stroke-opacity:1"
       d="m 173.51494,382.39244 17.1778,-22.3414"
       id="path3019-0"
       inkscape:connector-curvature="0"
       sodipodi:nodetypes="cc" />
    <path
       style="fill:none;stroke:#000000;stroke-width:1px;stroke-linecap:butt;stroke-linejoin:miter;stroke-opacity:1"
       d="m 245.45743,407.77915 37.71356,-16.911"
       id="path3021-1"
       inkscape:connector-curvature="0"
       sodipodi:nodetypes="cc" />
    <path
       style="fill:none;stroke:#000000;stroke-width:1px;stroke-linecap:butt;stroke-linejoin:miter;stroke-opacity:1"
       d="m 356.79246,351.09562 1.81911,-26.48626"
       id="path3023-3"
       inkscape:connector-curvature="0"
       sodipodi:nodetypes="cc" />
    <path
       style="fill:none;stroke:#000000;stroke-width:1px;stroke-linecap:butt;stroke-linejoin:miter;stroke-opacity:1"
       d="m 262.06467,327.04102 52.4166,-16.56414"
       id="path3025-0"
       inkscape:connector-curvature="0"
       sodipodi:nodetypes="cc" />
    <path
       style="fill:none;stroke:#000000;stroke-width:1px;stroke-linecap:butt;stroke-linejoin:miter;stroke-opacity:1"
       d="m 261.16917,349.40318 26.47279,18.25041"
       id="path3027-2"
       inkscape:connector-curvature="0"
       sodipodi:nodetypes="cc" />
    <rect
       style="fill:none;stroke:#000000;stroke-width:2;stroke-linejoin:round;stroke-miterlimit:4;stroke-opacity:1;stroke-dasharray:4, 4;stroke-dashoffset:0"
       id="rect3275-8"
       width="415.26324"
       height="190.41754"
       x="21.788282"
       y="280.50897" />
    <text
       xml:space="preserve"
       style="font-size:14px;font-style:normal;font-weight:normal;text-align:center;line-height:125%;letter-spacing:0px;word-spacing:0px;text-anchor:middle;fill:#000000;fill-opacity:1;stroke:none;font-family:Sans"
       x="104.59261"
       y="297.10852"
       id="text4045-1"
       sodipodi:linespacing="125%"><tspan
         sodipodi:role="line"
         id="tspan4047-4"
         x="104.59261"
         y="297.10852">Within host population</tspan></text>
    <path
       style="fill:none;stroke:#000000;stroke-width:1px;stroke-linecap:butt;stroke-linejoin:miter;stroke-opacity:1"
       d="m 253.54507,211.50038 44.13562,65.73391"
       id="path4119"
       inkscape:connector-curvature="0"
       transform="translate(15.87366,29.162198)" />
    <path
       style="fill:none;stroke:#000000;stroke-width:1px;stroke-linecap:butt;stroke-linejoin:miter;stroke-opacity:1"
       d="m 452.93792,211.50038 -63.22976,65.10787"
       id="path4121"
       inkscape:connector-curvature="0"
       transform="translate(15.87366,29.162198)" />
  </g>
</svg>
